<?xml version="1.0" encoding="UTF-8" standalone="no"?>
<!-- Created with Inkscape (http://www.inkscape.org/) -->

<svg
   xmlns:dc="http://purl.org/dc/elements/1.1/"
   xmlns:cc="http://creativecommons.org/ns#"
   xmlns:rdf="http://www.w3.org/1999/02/22-rdf-syntax-ns#"
   xmlns:svg="http://www.w3.org/2000/svg"
   xmlns="http://www.w3.org/2000/svg"
   xmlns:xlink="http://www.w3.org/1999/xlink"
   xmlns:sodipodi="http://sodipodi.sourceforge.net/DTD/sodipodi-0.dtd"
   xmlns:inkscape="http://www.inkscape.org/namespaces/inkscape"
   width="125.19886mm"
   height="35.755039mm"
   viewBox="0 0 443.61798 126.69108"
   id="svg2"
   version="1.1"
   inkscape:version="0.91 r13725"
   sodipodi:docname="logo.svg">
  <title
     id="title4149">snake - coloured</title>
  <defs
     id="defs4">
    <pattern
       inkscape:collect="always"
       xlink:href="#Polkadots-large"
       id="pattern7799"
       patternTransform="scale(0.54244679,0.66619048)" />
    <pattern
       inkscape:collect="always"
       xlink:href="#Polkadots-large"
       id="pattern7707"
       patternTransform="scale(0.66619048,0.54244679)" />
    <pattern
       inkscape:collect="always"
       xlink:href="#Polkadots-large"
       id="pattern7615"
       patternTransform="scale(0.61315747,0.68386815)" />
    <pattern
       inkscape:collect="always"
       xlink:href="#Polkadots-large"
       id="pattern7523"
       patternTransform="scale(0.63083514,0.66619048)" />
    <pattern
       inkscape:collect="always"
       xlink:href="#Polkadots-large"
       id="pattern7431"
       patternTransform="scale(0.56012446,0.61315747)" />
    <pattern
       inkscape:collect="always"
       xlink:href="#Polkadots-large"
       id="pattern7339"
       patternTransform="scale(0.56012446,0.57780213)" />
    <pattern
       inkscape:collect="always"
       xlink:href="#Polkadots-large"
       id="pattern7247"
       patternTransform="scale(0.57780213,0.66619048)" />
    <pattern
       inkscape:collect="always"
       xlink:href="#Polkadots-large"
       id="pattern7155"
       patternTransform="scale(0.66619048,0.63083514)" />
    <pattern
       inkscape:collect="always"
       xlink:href="#Polkadots-large"
       id="pattern7063"
       patternTransform="scale(0.64851281,0.73690115)" />
    <pattern
       inkscape:collect="always"
       xlink:href="#Polkadots-large"
       id="pattern6971"
       patternTransform="scale(0.71922348,0.66619048)" />
    <pattern
       inkscape:collect="always"
       xlink:href="#Polkadots-large"
       id="pattern6879"
       patternTransform="scale(0.64851281,0.70154582)" />
    <pattern
       inkscape:collect="always"
       xlink:href="#Polkadots-large"
       id="pattern6787"
       patternTransform="scale(0.70154582,0.71922348)" />
    <pattern
       inkscape:collect="always"
       xlink:href="#Polkadots-large"
       id="pattern6695"
       patternTransform="scale(0.5954798,0.68386815)" />
    <pattern
       inkscape:collect="always"
       xlink:href="#Polkadots-large"
       id="pattern6603"
       patternTransform="scale(0.48941378,0.63083514)" />
    <pattern
       inkscape:collect="always"
       xlink:href="#Polkadots-large"
       id="pattern6511"
       patternTransform="scale(0.61315747,0.54244679)" />
    <pattern
       inkscape:collect="always"
       xlink:href="#Polkadots-large"
       id="pattern6419"
       patternTransform="scale(0.57780213,0.5954798)" />
    <pattern
       inkscape:collect="always"
       xlink:href="#Polkadots-large"
       id="pattern6327"
       patternTransform="matrix(0.57780212,0,0,0.71922348,0.35355372,0.35355388)" />
    <pattern
       inkscape:stockid="Polka dots, large"
       id="Polkadots-large"
       patternTransform="translate(0,0) scale(10,10)"
       height="10"
       width="10"
       patternUnits="userSpaceOnUse"
       inkscape:collect="always">
      <circle
         id="circle6017"
         r="0.45"
         cy="0.810"
         cx="2.567"
         style="fill:black;stroke:none" />
      <circle
         id="circle6019"
         r="0.45"
         cy="2.33"
         cx="3.048"
         style="fill:black;stroke:none" />
      <circle
         id="circle6021"
         r="0.45"
         cy="2.415"
         cx="4.418"
         style="fill:black;stroke:none" />
      <circle
         id="circle6023"
         r="0.45"
         cy="3.029"
         cx="1.844"
         style="fill:black;stroke:none" />
      <circle
         id="circle6025"
         r="0.45"
         cy="1.363"
         cx="6.08"
         style="fill:black;stroke:none" />
      <circle
         id="circle6027"
         r="0.45"
         cy="4.413"
         cx="5.819"
         style="fill:black;stroke:none" />
      <circle
         id="circle6029"
         r="0.45"
         cy="4.048"
         cx="4.305"
         style="fill:black;stroke:none" />
      <circle
         id="circle6031"
         r="0.45"
         cy="3.045"
         cx="5.541"
         style="fill:black;stroke:none" />
      <circle
         id="circle6033"
         r="0.45"
         cy="5.527"
         cx="4.785"
         style="fill:black;stroke:none" />
      <circle
         id="circle6035"
         r="0.45"
         cy="5.184"
         cx="2.667"
         style="fill:black;stroke:none" />
      <circle
         id="circle6037"
         r="0.45"
         cy="1.448"
         cx="7.965"
         style="fill:black;stroke:none" />
      <circle
         id="circle6039"
         r="0.45"
         cy="5.049"
         cx="7.047"
         style="fill:black;stroke:none" />
      <circle
         id="circle6041"
         r="0.45"
         cy="0.895"
         cx="4.340"
         style="fill:black;stroke:none" />
      <circle
         id="circle6043"
         r="0.45"
         cy="0.340"
         cx="7.125"
         style="fill:black;stroke:none" />
      <circle
         id="circle6045"
         r="0.45"
         cy="1.049"
         cx="9.553"
         style="fill:black;stroke:none" />
      <circle
         id="circle6047"
         r="0.45"
         cy="2.689"
         cx="7.006"
         style="fill:black;stroke:none" />
      <circle
         id="circle6049"
         r="0.45"
         cy="2.689"
         cx="8.909"
         style="fill:black;stroke:none" />
      <circle
         id="circle6051"
         r="0.45"
         cy="4.407"
         cx="9.315"
         style="fill:black;stroke:none" />
      <circle
         id="circle6053"
         r="0.45"
         cy="3.870"
         cx="7.820"
         style="fill:black;stroke:none" />
      <circle
         id="circle6055"
         r="0.45"
         cy="5.948"
         cx="8.270"
         style="fill:black;stroke:none" />
      <circle
         id="circle6057"
         r="0.45"
         cy="7.428"
         cx="7.973"
         style="fill:black;stroke:none" />
      <circle
         id="circle6059"
         r="0.45"
         cy="8.072"
         cx="9.342"
         style="fill:black;stroke:none" />
      <circle
         id="circle6061"
         r="0.45"
         cy="9.315"
         cx="8.206"
         style="fill:black;stroke:none" />
      <circle
         id="circle6063"
         r="0.45"
         cy="9.475"
         cx="9.682"
         style="fill:black;stroke:none" />
      <circle
         id="circle6065"
         r="0.45"
         cy="6.186"
         cx="9.688"
         style="fill:black;stroke:none" />
      <circle
         id="circle6067"
         r="0.45"
         cy="6.296"
         cx="3.379"
         style="fill:black;stroke:none" />
      <circle
         id="circle6069"
         r="0.45"
         cy="8.204"
         cx="2.871"
         style="fill:black;stroke:none" />
      <circle
         id="circle6071"
         r="0.45"
         cy="8.719"
         cx="4.59"
         style="fill:black;stroke:none" />
      <circle
         id="circle6073"
         r="0.45"
         cy="9.671"
         cx="3.181"
         style="fill:black;stroke:none" />
      <circle
         id="circle6075"
         r="0.45"
         cy="7.315"
         cx="5.734"
         style="fill:black;stroke:none" />
      <circle
         id="circle6077"
         r="0.45"
         cy="6.513"
         cx="6.707"
         style="fill:black;stroke:none" />
      <circle
         id="circle6079"
         r="0.45"
         cy="9.670"
         cx="5.730"
         style="fill:black;stroke:none" />
      <circle
         id="circle6081"
         r="0.45"
         cy="8.373"
         cx="6.535"
         style="fill:black;stroke:none" />
      <circle
         id="circle6083"
         r="0.45"
         cy="7.154"
         cx="4.37"
         style="fill:black;stroke:none" />
      <circle
         id="circle6085"
         r="0.45"
         cy="7.25"
         cx="0.622"
         style="fill:black;stroke:none" />
      <circle
         id="circle6087"
         r="0.45"
         cy="5.679"
         cx="0.831"
         style="fill:black;stroke:none" />
      <circle
         id="circle6089"
         r="0.45"
         cy="8.519"
         cx="1.257"
         style="fill:black;stroke:none" />
      <circle
         id="circle6091"
         r="0.45"
         cy="6.877"
         cx="1.989"
         style="fill:black;stroke:none" />
      <circle
         id="circle6093"
         r="0.45"
         cy="3.181"
         cx="0.374"
         style="fill:black;stroke:none" />
      <circle
         id="circle6095"
         r="0.45"
         cy="1.664"
         cx="1.166"
         style="fill:black;stroke:none" />
      <circle
         id="circle6097"
         r="0.45"
         cy="0.093"
         cx="1.151"
         style="fill:black;stroke:none" />
      <circle
         id="circle6099"
         r="0.45"
         cy="10.093"
         cx="1.151"
         style="fill:black;stroke:none" />
      <circle
         id="circle6101"
         r="0.45"
         cy="4.451"
         cx="1.302"
         style="fill:black;stroke:none" />
      <circle
         id="circle6103"
         r="0.45"
         cy="3.763"
         cx="3.047"
         style="fill:black;stroke:none" />
    </pattern>
  </defs>
  <sodipodi:namedview
     id="base"
     pagecolor="#ffffff"
     bordercolor="#666666"
     borderopacity="1.0"
     inkscape:pageopacity="0.0"
     inkscape:pageshadow="2"
     inkscape:zoom="1"
     inkscape:cx="338.21166"
     inkscape:cy="83.94445"
     inkscape:document-units="mm"
     inkscape:current-layer="layer2"
     showgrid="false"
     inkscape:window-width="1278"
     inkscape:window-height="781"
     inkscape:window-x="0"
     inkscape:window-y="0"
     inkscape:window-maximized="0"
     inkscape:snap-global="false"
     fit-margin-top="1"
     fit-margin-right="1"
     fit-margin-bottom="1"
     fit-margin-left="1" />
  <metadata
     id="metadata7">
    <rdf:RDF>
      <cc:Work
         rdf:about="">
        <dc:format>image/svg+xml</dc:format>
        <dc:type
           rdf:resource="http://purl.org/dc/dcmitype/StillImage" />
        <dc:title>snake - coloured</dc:title>
        <dc:date>2015-02-14</dc:date>
        <dc:creator>
          <cc:Agent>
            <dc:title>Frank Tremmel</dc:title>
          </cc:Agent>
        </dc:creator>
        <dc:subject>
          <rdf:Bag>
            <rdf:li>snake</rdf:li>
            <rdf:li>reptiles</rdf:li>
            <rdf:li>animals</rdf:li>
            <rdf:li>schlange</rdf:li>
            <rdf:li>reptilien</rdf:li>
            <rdf:li>tiere</rdf:li>
            <rdf:li>line art</rdf:li>
            <rdf:li>outline</rdf:li>
          </rdf:Bag>
        </dc:subject>
        <dc:description>coloured line art snake</dc:description>
        <cc:license
           rdf:resource="http://creativecommons.org/publicdomain/zero/1.0/" />
      </cc:Work>
      <cc:License
         rdf:about="http://creativecommons.org/publicdomain/zero/1.0/">
        <cc:permits
           rdf:resource="http://creativecommons.org/ns#Reproduction" />
        <cc:permits
           rdf:resource="http://creativecommons.org/ns#Distribution" />
        <cc:permits
           rdf:resource="http://creativecommons.org/ns#DerivativeWorks" />
      </cc:License>
    </rdf:RDF>
  </metadata>
  <g
     inkscape:groupmode="layer"
     id="layer2"
     inkscape:label="Ebene 2"
     transform="translate(344.18612,2.4029103)">
    <g
       id="g5373"
       transform="matrix(1.301015,0,0,1.301015,-28.863906,-36.346021)">
      <rect
         ry="24.143003"
         y="30.458326"
         x="-237.99771"
         height="88.641426"
         width="332.24118"
         id="rect5371"
         style="color:#000000;display:inline;overflow:visible;visibility:visible;opacity:1;fill:#ffffff;fill-opacity:1;fill-rule:nonzero;stroke:#5a4a42;stroke-width:3.29023361;stroke-linecap:butt;stroke-linejoin:miter;stroke-miterlimit:4;stroke-dasharray:none;stroke-dashoffset:0;stroke-opacity:1;marker:none;enable-background:accumulate" />
      <g
         transform="matrix(0.63801081,0,0,0.63801081,16.29049,41.330556)"
         id="g5289">
        <path
           style="fill:#b2cc65;fill-opacity:1;fill-rule:evenodd;stroke:#ff0000;stroke-width:0.35433072;stroke-linecap:butt;stroke-linejoin:miter;stroke-miterlimit:4;stroke-dasharray:none;stroke-opacity:1"
           d="m 89.71748,19.207573 c -0.5027,-0.0038 -1.99215,0.258169 -2.42295,0.288379 -1.69462,0.118715 -3.84966,1.702986 -3.72339,3.407618 0,0 -4.28829,2.990211 -7.51816,8.456297 -2.5972,4.39537 -4.221,13.518262 -4.221,13.518262 0,0 -10.36882,0.875929 -15.15093,1.89233 -6.30775,1.340666 -14.11536,3.538918 -17.54776,6.63091 -4.60083,4.144555 -7.92186,12.467555 -5.37538,18.112061 2.84209,6.299749 10.45238,6.898905 17.35678,7.204642 4.74188,0.209978 12.13241,-0.264676 16.99234,-3.158936 3.61282,-2.151579 7.0375,-5.493568 9.21533,-9.090627 0.91087,-1.504468 2.01953,-5.173829 2.01953,-5.173829 1.375,0.376017 5.78787,1.568741 7.19727,4.789063 1.029541,2.352385 0.912423,7.732652 -0.87305,9.578125 -2.895735,2.993046 -8.50062,4.468271 -13.71294,5.561032 -8.66997,1.817656 -18.05401,3.250963 -26.89189,2.647655 -7.50248,-0.512146 -15.91678,-1.979336 -22.6002,-5.426267 -3.67909,-1.89747 -7.97537,-6.363405 -8.52739,-10.466014 -0.50155,-3.727495 2.409418,-8.302121 5.74614,-10.037645 4.321197,-2.247578 10.381252,-3.959359 15.08931,-5.746827 3.395218,-1.289033 6.74834,-2.890304 9.2168,-5.554103 2.67237,-2.88385 4.53799,-8.225196 2.39892,-11.612597 -2.35727,-3.732929 -7.69494,-6.150499 -12.12109,-6.247898 -4.41915,-0.09724 -9.00106,0.456145 -13.38282,-0.125684 -2.75248,-0.365487 -7.20703,-1.454543 -7.20703,-1.454543 -0.71809,-0.24193 -2.26101,0.04192 -1.50781,1.761719 0.653,1.175514 1.57822,1.880024 3.23247,2.760301 1.6081,0.855715 5.48326,1.692441 6.66074,1.846973 4.97766,0.653264 8.16632,0.999953 12.39415,1.770116 2.3424,0.426705 4.61772,2.288483 4.61772,4.669436 0,2.738095 -2.40554,2.802726 -4.80991,4.112745 -1.70953,0.931435 -7.01022,1.774762 -10.50322,2.627687 -3.87841,0.94703 -9.0746,2.261875 -12.28384,4.316406 -5.3789701,3.443576 -10.88056012,8.108495 -11.55078012,14.460056 -0.46405,4.397649 -0.24256,10.420426 2.22329002,14.441991 2.37619,3.875337 6.4866401,8.497638 9.9080501,11.037794 5.03405,3.737416 20.20091,8.122405 30.09966,8.9582 14.91129,1.259029 32.06051,-0.09295 46.0187,-5.487448 6.92542,-2.676505 13.16103,-8.889054 17.17461,-15.135351 1.91015,-2.972738 1.94763,-6.76635 1.89649,-11.230469 -0.0458,-3.995171 -1.89006,-8.120208 -4.4961,-11.339843 -2.39593,-2.960071 -6.37841,-5.811016 -9.51562,-7.220703 -3.48607,-1.566439 -10.677,-3.344385 -10.677,-3.344385 0,0 -0.17768,-2.837646 0.19653,-4.5521 0.35623,-1.632091 1.11103,-2.738925 1.57749,-3.726175 0.4606,-0.974868 1.53157,-2.434069 3.46938,-2.64248 2.68352,-0.28861 3.72786,0.351496 6.3939,-0.06899 1.84532,-0.291044 5.18715,-0.782472 6.93222,-1.449269 1.10788,-0.423323 3.1046,-0.652741 3.97574,-1.457566 0.87496,-0.808365 1.49757,-2.046288 1.70513,-3.219286 0.15826,-0.894377 0.10122,-2.674224 -1.46206,-3.279981 -0.46239,-0.179175 -1.62869,-0.374412 -2.28711,-1.003906 -0.62373,-0.596329 -1.60755,-1.321324 -2.24873,-1.778513 -2.46292,-1.75616 -3.72299,-2.824507 -6.70367,-3.339844 C 92.9841,19.49241 91.22557,19.218858 89.71748,19.207573 Z M 64.75874,61.411769 c 0,0 -1.78571,2.853352 -7.3251,4.041164 -2.39013,0.512516 -6.88033,0.378906 -6.88033,0.378906 -0.73737,-0.11631 -1.58945,-0.735803 -0.1895,-1.509766 0,0 2.753493,-1.479747 4.6128,-2.210986 4.97545,-1.956773 9.78208,-1.949318 9.78208,-1.949318 z"
           id="path4212-5"
           inkscape:connector-curvature="0"
           sodipodi:nodetypes="sscscsssssscssssssssssssccsssssssssssssssscsssssssssssscsccscc" />
        <g
           id="g14475"
           style="fill:#a88724;fill-opacity:1"
           transform="translate(-112.75,35)">
          <path
             sodipodi:nodetypes="csssssssssscc"
             inkscape:connector-curvature="0"
             id="path4317-7-3"
             d="m 160.89254,48.608929 c -1.34343,0.730642 -1.05826,2.308106 0.0749,3.240447 0.46789,0.384956 0.12628,1.141568 -0.38745,1.08536 -2.13983,-0.234125 -5.25543,3.22248 -5.25543,3.22248 -1.14023,0.814215 -0.91015,2.24424 -0.48852,2.736834 0.38167,0.445903 1.63194,1.479198 3.29366,0.628887 0,0 4.41195,-3.52281 6.90517,-3.884878 1.67413,-0.243119 4.93439,0.662346 7.39167,1.870032 2.05992,1.012397 3.69891,2.129659 5.04976,1.698027 0.99225,-0.317047 1.25642,-1.659113 1.10962,-2.690384 -0.17502,-1.229593 -3.38821,-3.558416 -4.55874,-3.973622 -3.55972,-1.262694 -2.53088,-2.59474 -1.76544,-4.181187 -4.67484,0.405012 -8.78889,0.220364 -11.36925,0.248004 z"
             style="fill:#a88724;fill-opacity:1;fill-rule:evenodd;stroke:none;stroke-width:0.35433072;stroke-linecap:butt;stroke-linejoin:miter;stroke-miterlimit:4;stroke-dasharray:none;stroke-opacity:1" />
          <path
             sodipodi:nodetypes="sssssssssssccs"
             inkscape:connector-curvature="0"
             id="path4317-3-8"
             d="m 191.27661,48.010069 c 1.27242,0.848278 -0.68658,1.037297 0.67661,1.580532 0.56285,0.224298 0.79493,0.69745 0.35898,0.975013 -1.17255,0.746533 -1.01546,2.365534 -1.12396,3.58324 -0.0911,1.022879 -0.27235,2.856717 0.2792,3.197624 0.49927,0.308593 2.68177,0.115824 4.00588,-1.19988 0,0 1.94759,-4.930762 4.21235,-6.034442 1.28833,-0.627841 3.2536,-2.184675 4.67439,-1.7606 1.66218,0.496121 2.77465,2.986556 4.14069,2.014385 0.84868,-0.603988 2.23839,-2.097422 1.47142,-2.80229 -0.54094,-0.497146 -2.49031,-1.448361 -3.73168,-1.487633 -3.77514,-0.11943 -7.74779,-3.766107 -7.50147,-5.510255 -2.88558,2.553383 -9.25553,3.804244 -11.70507,4.615878 z"
             style="fill:#a88724;fill-opacity:1;fill-rule:evenodd;stroke:none;stroke-width:0.35433072;stroke-linecap:butt;stroke-linejoin:miter;stroke-miterlimit:4;stroke-dasharray:none;stroke-opacity:1" />
          <path
             sodipodi:nodetypes="cssssccssscsc"
             inkscape:connector-curvature="0"
             id="path4340-1"
             d="m 200.797,28.488537 c 0,0 1.97523,-2.350707 3.35876,-2.828427 1.25614,-0.433737 1.38144,-1.422597 0.7071,-2.916815 -0.58789,-1.302659 0.17532,-3.032334 1.06066,-4.154253 0.66604,-0.844008 1.97114,-1.477385 2.56327,-0.08839 0.62565,1.467649 4.08837,0.485314 4.15425,0.353553 5.26683,4.607278 5.96716,8.757907 6.62913,12.904699 0,0 -2.24036,-1.422102 -3.44715,-1.237437 -1.20574,0.184503 -1.72128,1.967754 -2.91681,2.209709 -1.75797,0.355781 -3.46101,-1.701087 -5.21492,-1.325825 -2.13277,0.456322 -5.21491,3.535534 -5.21491,3.535534 0,0 0.42268,-1.393599 0.0884,-2.651651 -0.29118,-1.095812 -1.76777,-3.800697 -1.76777,-3.800697 z"
             style="fill:#a88724;fill-opacity:1;fill-rule:evenodd;stroke:none;stroke-width:0.35433072;stroke-linecap:butt;stroke-linejoin:miter;stroke-miterlimit:4;stroke-dasharray:none;stroke-opacity:1" />
          <path
             sodipodi:nodetypes="cssssccscsc"
             inkscape:connector-curvature="0"
             id="path4342-7"
             d="m 146.173,35.29444 c 0,0 3.05715,-0.867512 4.24264,-1.856155 1.25514,-1.046724 1.19485,-3.533521 2.74004,-4.065864 1.17161,-0.403638 2.2979,1.211152 3.53553,1.149048 0.80371,-0.04033 1.23696,-1.11914 2.03294,-1.237437 0.73379,-0.109056 2.38648,0.53033 2.38648,0.53033 0.45521,-1.159225 -0.21629,-2.968311 6.18719,-6.010407 0,0 -6.65245,-0.436712 -8.83884,-2.563262 -3.03377,-2.950732 -7.69838,-2.363766 -7.6014,-2.121321 0,0 -3.75532,4.835815 -4.68458,7.689787 -1.4229,4.370056 -0.24109,9.088005 0,8.485281 z"
             style="fill:#a88724;fill-opacity:1;fill-rule:evenodd;stroke:none;stroke-width:0.35433072;stroke-linecap:butt;stroke-linejoin:miter;stroke-miterlimit:4;stroke-dasharray:none;stroke-opacity:1" />
          <path
             sodipodi:nodetypes="cssssssssscc"
             inkscape:connector-curvature="0"
             id="path4317-2-1"
             d="m 165.34211,30.465871 c -1.08667,1.076003 4.50206,3.317166 5.85015,3.89687 0.55662,0.239356 0.64142,1.435958 0.72578,1.945827 0.26615,1.608759 -2.76434,3.212273 -2.76434,3.212273 -0.86823,1.099653 -2.28177,2.232176 -1.7396,2.587795 0.4908,0.32191 1.61266,0.336099 2.97168,-0.943515 0,0 4.17773,-1.26403 5.94469,-3.059882 2.83116,-2.877465 3.61001,-3.580825 6.19129,-2.502014 0.9611,0.401681 2.50493,-1.460984 2.07663,-2.410522 -0.51068,-1.132143 -1.67222,-1.026379 -2.91388,-1.055014 -1.91441,-0.04415 -4.55436,-4.363235 -4.26121,-6.100127 -2.45983,3.338267 -8.543,4.910532 -12.08119,4.428309 z"
             style="fill:#a88724;fill-opacity:1;fill-rule:evenodd;stroke:none;stroke-width:0.35433072;stroke-linecap:butt;stroke-linejoin:miter;stroke-miterlimit:4;stroke-dasharray:none;stroke-opacity:1" />
          <path
             sodipodi:nodetypes="csccscc"
             inkscape:connector-curvature="0"
             id="path4350-9"
             d="m 174.45727,11.252809 c 0,0 5.09354,2.213295 5.21491,4.507806 0.16627,3.143163 -6.45235,6.894291 -6.45235,6.894291 l 7.33624,-0.08839 c 0,0 2.73788,-4.559456 3.53553,-7.071068 0.53225,-1.675925 0.7955,-5.214912 0.7955,-5.214912 z"
             style="fill:#a88724;fill-opacity:1;fill-rule:evenodd;stroke:none;stroke-width:0.35433072;stroke-linecap:butt;stroke-linejoin:miter;stroke-miterlimit:4;stroke-dasharray:none;stroke-opacity:1" />
          <path
             sodipodi:nodetypes="cccccc"
             inkscape:connector-curvature="0"
             id="path4352-1"
             d="m 193.90271,17.881936 c 0.99194,2.30764 2.48598,4.278824 3.71231,4.24264 0.59167,0.477413 0.46442,1.098613 -0.12108,1.811461 -0.81536,1.744126 -1.74802,-0.07295 -2.44218,-0.574023 l -2.03294,-1.502603 z"
             style="fill:#a88724;fill-opacity:1;fill-rule:evenodd;stroke:none;stroke-width:0.35433072;stroke-linecap:butt;stroke-linejoin:miter;stroke-miterlimit:4;stroke-dasharray:none;stroke-opacity:1" />
          <path
             sodipodi:nodetypes="cssssssssscc"
             inkscape:connector-curvature="0"
             id="path4317-37-2"
             d="m 185.00224,10.821227 c 0.22086,1.006139 0.91304,0.811806 1.72242,0.249442 0.33419,-0.232194 1.33187,1.410894 1.20056,1.733521 -0.54697,1.344135 0.55527,2.819745 0.55527,2.819745 0.31224,0.889839 1.49526,1.623778 1.89008,1.441478 0.3574,-0.165024 0.85439,-2.435929 0.12942,-4.421874 0,0 -1.88722,-2.071082 -1.71833,-3.7616835 0.10605,-1.061584 0.34043,-1.67798 2.5346,-1.784928 0.70142,-0.03419 1.6096,0.01 1.47554,-2.088049 -0.0677,-1.0596 -2.41091,-1.359171 -2.89472,-0.676991 -1.47134,2.074588 -2.05955,-1.454202 -3.8658,-0.741224 -0.53794,2.70597 -1.05488,5.552403 -1.02904,7.2305635 z"
             style="fill:#a88724;fill-opacity:1;fill-rule:evenodd;stroke:none;stroke-width:0.35433075;stroke-linecap:butt;stroke-linejoin:miter;stroke-miterlimit:4;stroke-dasharray:none;stroke-opacity:1" />
          <path
             sodipodi:nodetypes="cscsc"
             inkscape:connector-curvature="0"
             id="path4374-7-1"
             d="m 160.57913,62.125684 c 0,0 2.80588,-4.334741 4.50927,-4.464592 2.34174,-0.178512 5.46025,4.596698 5.46025,4.596698 0,0 -4.32186,0.210951 -5.15626,0.135625 -1.67489,-0.151203 -4.81326,-0.267731 -4.81326,-0.267731 z"
             style="fill:#a88724;fill-opacity:1;fill-rule:evenodd;stroke:none;stroke-width:0.35433072;stroke-linecap:butt;stroke-linejoin:miter;stroke-miterlimit:4;stroke-dasharray:none;stroke-opacity:1" />
          <path
             sodipodi:nodetypes="cscsc"
             inkscape:connector-curvature="0"
             id="path4374-5-1"
             d="m 199.08303,56.642985 c 0,0 -0.009,-3.914645 1.41686,-4.856144 1.95968,-1.294328 6.03391,1.097661 6.03391,1.097661 0,0 -2.96722,1.754882 -3.73302,2.094658 -1.53719,0.682031 -3.71775,1.663825 -3.71775,1.663825 z"
             style="fill:#a88724;fill-opacity:1;fill-rule:evenodd;stroke:none;stroke-width:0.35433072;stroke-linecap:butt;stroke-linejoin:miter;stroke-miterlimit:4;stroke-dasharray:none;stroke-opacity:1" />
          <path
             sodipodi:nodetypes="cscsc"
             inkscape:connector-curvature="0"
             id="path4374-1"
             d="m 119.82026,49.783663 c 0,0 4.61439,-2.317413 6.14905,-1.566942 2.10979,1.031713 2.38128,6.728554 2.38128,6.728554 0,0 -3.83375,-2.006294 -4.51516,-2.493719 -1.36779,-0.978408 -4.01517,-2.667893 -4.01517,-2.667893 z"
             style="fill:#a88724;fill-opacity:1;fill-rule:evenodd;stroke:none;stroke-width:0.35433072;stroke-linecap:butt;stroke-linejoin:miter;stroke-miterlimit:4;stroke-dasharray:none;stroke-opacity:1" />
          <path
             sodipodi:nodetypes="cssssssssscc"
             inkscape:connector-curvature="0"
             id="path4317-24"
             d="m 128.3426,38.098818 c -1.50897,-0.248268 -2.53159,0.954776 -2.20971,2.386486 0.13291,0.591141 -0.60131,0.978542 -0.97227,0.618718 -1.54512,-1.498758 -6.45235,-0.265165 -6.45235,-0.265165 -1.39991,-0.05753 -2.09643,1.212418 -2.06613,1.860108 0.0274,0.586301 0.6744,1.502931 2.50807,1.852203 0,0 5.23449,0.16901 7.42463,1.414214 2.70342,1.537038 3.26794,5.910734 6.18718,6.982679 0.97783,0.359059 2.5762,0.462144 3.09359,-0.441942 0.6169,-1.07795 -0.74532,-2.400669 -1.41421,-3.447145 -2.03419,-3.182458 1.60367,-4.167651 3.18198,-4.949748 -3.73706,-0.938467 -7.22723,-4.447744 -9.28078,-6.010408 z"
             style="fill:#a88724;fill-opacity:1;fill-rule:evenodd;stroke:none;stroke-width:0.35433072;stroke-linecap:butt;stroke-linejoin:miter;stroke-miterlimit:4;stroke-dasharray:none;stroke-opacity:1" />
          <path
             sodipodi:nodetypes="cscscscsc"
             inkscape:connector-curvature="0"
             id="path4315-2"
             d="m 113.02737,36.708653 c 0,0 3.56187,-8.579954 7.42462,-8.838834 3.18044,-0.213151 6.27557,6.275573 6.27557,6.275573 0,0 -1.22981,-4.387797 -0.79549,-6.540738 0.32881,-1.629921 2.47487,-4.331029 2.47487,-4.331029 -2.00378,1.032306 -4.26436,0.665279 -4.94974,-0.618719 -1.09948,-2.059745 -1.26274,-3.626256 1.23743,-6.894291 0,0 -7.5006,4.973098 -9.63433,8.750447 -2.19064,3.878101 -2.8763,9.937246 -2.03293,12.197591 z"
             style="fill:#a88724;fill-opacity:1;fill-rule:evenodd;stroke:none;stroke-width:0.35433072;stroke-linecap:butt;stroke-linejoin:miter;stroke-miterlimit:4;stroke-dasharray:none;stroke-opacity:1" />
          <path
             sodipodi:nodetypes="csccsccc"
             inkscape:connector-curvature="0"
             id="path4354-1"
             d="m 129.37921,13.992848 c 0,0 4.31514,-0.100144 5.39169,1.414214 0.8733,1.228436 -0.35355,4.507806 -0.35355,4.507806 l 9.89949,-3.623923 c 0,0 -2.3987,-1.192457 -3.0052,-2.298097 -0.49776,-0.907421 -0.26516,-3.093592 -0.26516,-3.093592 l -7.68979,1.237437 z"
             style="fill:#a88724;fill-opacity:1;fill-rule:evenodd;stroke:none;stroke-width:0.35433072;stroke-linecap:butt;stroke-linejoin:miter;stroke-miterlimit:4;stroke-dasharray:none;stroke-opacity:1" />
          <path
             sodipodi:nodetypes="csccscc"
             inkscape:connector-curvature="0"
             id="path4356-4"
             d="m 145.99622,9.7502075 c 0.44195,-0.08839 3.5793,-0.465605 5.12653,0.2651655 0.82972,0.391885 1.85615,2.032932 1.85615,2.032932 2.942,-1.975667 4.08341,-3.4111615 4.68459,-4.6845835 0,0 -0.95673,-1.587381 -1.76777,-1.856155 -0.99313,-0.329115 -3.09359,0.53033 -3.09359,0.53033 -1.44252,1.733106 -4.2401,2.653179 -6.80591,3.712311 z"
             style="fill:#a88724;fill-opacity:1;fill-rule:evenodd;stroke:none;stroke-width:0.35433072;stroke-linecap:butt;stroke-linejoin:miter;stroke-miterlimit:4;stroke-dasharray:none;stroke-opacity:1" />
          <path
             sodipodi:nodetypes="cccsssc"
             inkscape:connector-curvature="0"
             id="path4358-2"
             d="m 148.20593,-6.0713075 c -2.5204,0.04904 -2.25875,1.810111 -1.76776,3.712311 2.33696,0.337464 3.98525,0.986726 5.48007,2.03293205 0,0 0.18548,-1.68766505 0.69441,-2.27416905 0.2766,-0.31876 0.51686,-0.858376 1.29863,-0.885757 0.78177,-0.02738 2.10505,0.457473 2.07283,0.419887 -1.80342,-2.103663 -4.82521,-2.507806 -7.77818,-3.005204 z"
             style="fill:#a88724;fill-opacity:1;fill-rule:evenodd;stroke:none;stroke-width:0.35433072;stroke-linecap:butt;stroke-linejoin:miter;stroke-miterlimit:4;stroke-dasharray:none;stroke-opacity:1" />
          <path
             sodipodi:nodetypes="cssscscc"
             inkscape:connector-curvature="0"
             id="path4360-8"
             d="m 124.69463,-6.9551915 c 0,0 2.69917,1.573568 3.97748,1.944545 1.39108,0.403704 2.94737,-0.516857 4.33103,-0.08839 1.36143,0.421588 3.11067,2.19623 3.62392,2.12132 0.4857,-0.07089 2.25944,-3.422278 2.91681,-3.093592 0,0 -4.31472,-0.162436 -6.45235,-0.441941 -1.99384,-0.260706 -5.92201,-1.149049 -5.92201,-1.149049 -1.86791,-0.317448 -2.4677,0.326781 -2.47488,0.707107 z"
             style="fill:#a88724;fill-opacity:1;fill-rule:evenodd;stroke:none;stroke-width:0.35433072;stroke-linecap:butt;stroke-linejoin:miter;stroke-miterlimit:4;stroke-dasharray:none;stroke-opacity:1" />
        </g>
        <path
           style="opacity:0.34800002;fill:url(#pattern6971);fill-opacity:1;fill-rule:evenodd;stroke:none;stroke-width:0.35433072;stroke-linecap:butt;stroke-linejoin:miter;stroke-miterlimit:4;stroke-dasharray:none;stroke-opacity:1"
           d="m 48.130335,83.639641 c -1.343427,0.730642 -1.058256,2.308106 0.07494,3.240447 0.467888,0.384956 0.126281,1.141568 -0.387453,1.08536 -2.139828,-0.234125 -5.255429,3.22248 -5.255429,3.22248 -1.140224,0.814215 -0.910145,2.24424 -0.488516,2.736834 0.381671,0.445903 1.631938,1.479198 3.293663,0.628887 0,0 4.411948,-3.52281 6.905163,-3.884878 1.674129,-0.243119 4.934392,0.662346 7.39167,1.870032 2.059922,1.012397 3.698913,2.129659 5.049764,1.698027 0.992245,-0.317047 1.25642,-1.659113 1.109623,-2.690384 -0.175029,-1.229593 -3.388219,-3.558416 -4.558747,-3.973622 -3.559716,-1.262694 -2.530882,-2.59474 -1.765433,-4.181187 -4.674843,0.405012 -8.788897,0.220364 -11.36925,0.248004 z"
           id="path4317-7"
           inkscape:connector-curvature="0"
           sodipodi:nodetypes="csssssssssscc" />
        <path
           style="opacity:0.34800002;fill:url(#pattern7155);fill-opacity:1;fill-rule:evenodd;stroke:none;stroke-width:0.35433072;stroke-linecap:butt;stroke-linejoin:miter;stroke-miterlimit:4;stroke-dasharray:none;stroke-opacity:1"
           d="m 78.514402,83.040781 c 1.272421,0.848278 -0.686581,1.037297 0.676614,1.580532 0.56285,0.224298 0.794932,0.69745 0.358978,0.975013 -1.172544,0.746533 -1.01546,2.365534 -1.123959,3.58324 -0.09114,1.022879 -0.27235,2.856717 0.279199,3.197624 0.499271,0.308593 2.681771,0.115824 4.005886,-1.19988 0,0 1.947589,-4.930762 4.212343,-6.034442 1.28833,-0.627841 3.253604,-2.184675 4.674397,-1.7606 1.662172,0.496121 2.774649,2.986556 4.140682,2.014385 0.848686,-0.603988 2.238389,-2.097422 1.471427,-2.80229 -0.54094,-0.497146 -2.490315,-1.448361 -3.731681,-1.487633 -3.775143,-0.11943 -7.747788,-3.766107 -7.501469,-5.510255 -2.885579,2.553383 -9.255535,3.804244 -11.705073,4.615878 z"
           id="path4317-3"
           inkscape:connector-curvature="0"
           sodipodi:nodetypes="sssssssssssccs" />
        <path
           style="opacity:0.34800002;fill:url(#pattern7339);fill-opacity:1;fill-rule:evenodd;stroke:none;stroke-width:0.35433072;stroke-linecap:butt;stroke-linejoin:miter;stroke-miterlimit:4;stroke-dasharray:none;stroke-opacity:1"
           d="m 88.034794,63.519249 c 0,0 1.975232,-2.350707 3.358758,-2.828427 1.256148,-0.433737 1.381446,-1.422597 0.707106,-2.916815 -0.58789,-1.302659 0.175318,-3.032334 1.060661,-4.154253 0.666034,-0.844008 1.971135,-1.477385 2.563262,-0.08839 0.625657,1.467649 4.088371,0.485314 4.154252,0.353553 5.266827,4.607278 5.967157,8.757907 6.629127,12.904699 0,0 -2.24036,-1.422102 -3.44715,-1.237437 -1.20574,0.184503 -1.72128,1.967754 -2.91681,2.209709 -1.757963,0.355781 -3.461006,-1.701087 -5.214914,-1.325825 -2.132772,0.456322 -5.214913,3.535534 -5.214913,3.535534 0,0 0.422679,-1.393599 0.08839,-2.651651 -0.29118,-1.095812 -1.767767,-3.800697 -1.767767,-3.800697 z"
           id="path4340"
           inkscape:connector-curvature="0"
           sodipodi:nodetypes="cssssccssscsc" />
        <path
           style="opacity:0.34800002;fill:url(#pattern7707);fill-opacity:1;fill-rule:evenodd;stroke:none;stroke-width:0.35433072;stroke-linecap:butt;stroke-linejoin:miter;stroke-miterlimit:4;stroke-dasharray:none;stroke-opacity:1"
           d="m 33.410795,70.325152 c 0,0 3.057146,-0.867512 4.242641,-1.856155 1.25514,-1.046724 1.194847,-3.533521 2.740039,-4.065864 1.171609,-0.403638 2.297902,1.211152 3.535534,1.149048 0.803706,-0.04033 1.236958,-1.11914 2.032932,-1.237437 0.733794,-0.109056 2.386485,0.53033 2.386485,0.53033 0.45521,-1.159225 -0.216287,-2.968311 6.187185,-6.010407 0,0 -6.652442,-0.436712 -8.838835,-2.563262 -3.033767,-2.950732 -7.698376,-2.363766 -7.601398,-2.121321 0,0 -3.755322,4.835815 -4.684583,7.689787 -1.422902,4.370056 -0.24109,9.088005 0,8.485281 z"
           id="path4342"
           inkscape:connector-curvature="0"
           sodipodi:nodetypes="cssssccscsc" />
        <path
           style="opacity:0.34800002;fill:url(#pattern7615);fill-opacity:1;fill-rule:evenodd;stroke:none;stroke-width:0.35433072;stroke-linecap:butt;stroke-linejoin:miter;stroke-miterlimit:4;stroke-dasharray:none;stroke-opacity:1"
           d="m 52.579901,65.496583 c -1.086669,1.076003 4.502065,3.317166 5.850155,3.89687 0.556615,0.239356 0.641422,1.435958 0.725775,1.945827 0.266155,1.608759 -2.764334,3.212273 -2.764334,3.212273 -0.868228,1.099653 -2.281773,2.232176 -1.739597,2.587795 0.490791,0.32191 1.612655,0.336099 2.971679,-0.943515 0,0 4.177725,-1.26403 5.944682,-3.059882 2.831168,-2.877465 3.610016,-3.580825 6.191292,-2.502014 0.961104,0.401681 2.504936,-1.460984 2.07663,-2.410522 -0.510673,-1.132143 -1.672216,-1.026379 -2.913874,-1.055014 -1.914409,-0.04415 -4.554359,-4.363235 -4.261217,-6.100127 -2.459829,3.338267 -8.542997,4.910532 -12.081191,4.428309 z"
           id="path4317-2"
           inkscape:connector-curvature="0"
           sodipodi:nodetypes="cssssssssscc" />
        <path
           style="opacity:0.34800002;fill:url(#pattern7799);fill-opacity:1;fill-rule:evenodd;stroke:none;stroke-width:0.35433072;stroke-linecap:butt;stroke-linejoin:miter;stroke-miterlimit:4;stroke-dasharray:none;stroke-opacity:1"
           d="m 61.695067,46.283521 c 0,0 5.093534,2.213295 5.214912,4.507806 0.166271,3.143163 -6.452349,6.894291 -6.452349,6.894291 l 7.336233,-0.08839 c 0,0 2.737882,-4.559456 3.535534,-7.071068 0.53225,-1.675925 0.795495,-5.214912 0.795495,-5.214912 z"
           id="path4350"
           inkscape:connector-curvature="0"
           sodipodi:nodetypes="csccscc" />
        <path
           style="opacity:0.34800002;fill:url(#pattern7431);fill-opacity:1;fill-rule:evenodd;stroke:none;stroke-width:0.35433072;stroke-linecap:butt;stroke-linejoin:miter;stroke-miterlimit:4;stroke-dasharray:none;stroke-opacity:1"
           d="m 81.140503,52.912648 c 0.991942,2.30764 2.485987,4.278824 3.712311,4.24264 0.591676,0.477413 0.46442,1.098613 -0.121075,1.811461 -0.815359,1.744126 -1.748027,-0.07295 -2.442187,-0.574023 L 80.25662,56.890123 Z"
           id="path4352"
           inkscape:connector-curvature="0"
           sodipodi:nodetypes="cccccc" />
        <path
           style="opacity:0.34800002;fill:url(#pattern7523);fill-opacity:1;fill-rule:evenodd;stroke:none;stroke-width:0.35433075;stroke-linecap:butt;stroke-linejoin:miter;stroke-miterlimit:4;stroke-dasharray:none;stroke-opacity:1"
           d="m 72.240034,45.851939 c 0.220862,1.006139 0.913042,0.811806 1.722425,0.249442 0.334188,-0.232194 1.331865,1.410894 1.20056,1.733521 -0.546971,1.344135 0.555268,2.819745 0.555268,2.819745 0.312242,0.889839 1.495255,1.623778 1.890076,1.441478 0.357399,-0.165024 0.85439,-2.435929 0.129425,-4.421874 0,0 -1.887219,-2.071082 -1.71833,-3.761683 0.106052,-1.061584 0.34043,-1.67798 2.534595,-1.784928 0.701424,-0.03419 1.6096,0.01 1.475547,-2.088049 -0.0677,-1.0596 -2.410913,-1.359171 -2.894727,-0.676991 -1.471338,2.074588 -2.059546,-1.454202 -3.865794,-0.741224 -0.537942,2.70597 -1.054887,5.552403 -1.029045,7.230563 z"
           id="path4317-37"
           inkscape:connector-curvature="0"
           sodipodi:nodetypes="cssssssssscc" />
        <path
           style="opacity:0.34800002;fill:url(#pattern7063);fill-opacity:1;fill-rule:evenodd;stroke:none;stroke-width:0.35433072;stroke-linecap:butt;stroke-linejoin:miter;stroke-miterlimit:4;stroke-dasharray:none;stroke-opacity:1"
           d="m 47.816922,97.156396 c 0,0 2.80588,-4.334741 4.509271,-4.464592 2.341742,-0.178512 5.460248,4.596698 5.460248,4.596698 0,0 -4.321853,0.210951 -5.156254,0.135625 -1.674892,-0.151203 -4.813265,-0.267731 -4.813265,-0.267731 z"
           id="path4374-7"
           inkscape:connector-curvature="0"
           sodipodi:nodetypes="cscsc" />
        <path
           style="opacity:0.34800002;fill:url(#pattern7247);fill-opacity:1;fill-rule:evenodd;stroke:none;stroke-width:0.35433072;stroke-linecap:butt;stroke-linejoin:miter;stroke-miterlimit:4;stroke-dasharray:none;stroke-opacity:1"
           d="m 86.320824,91.673697 c 0,0 -0.0086,-3.914645 1.416861,-4.856144 1.959678,-1.294328 6.033914,1.097661 6.033914,1.097661 0,0 -2.967226,1.754882 -3.733027,2.094658 -1.537191,0.682031 -3.717748,1.663825 -3.717748,1.663825 z"
           id="path4374-5"
           inkscape:connector-curvature="0"
           sodipodi:nodetypes="cscsc" />
        <path
           style="opacity:0.34800002;fill:url(#pattern6879);fill-opacity:1;fill-rule:evenodd;stroke:none;stroke-width:0.35433072;stroke-linecap:butt;stroke-linejoin:miter;stroke-miterlimit:4;stroke-dasharray:none;stroke-opacity:1"
           d="m 7.0580583,84.814375 c 0,0 4.6143837,-2.317413 6.1490487,-1.566942 2.109785,1.031713 2.381281,6.728554 2.381281,6.728554 0,0 -3.833758,-2.006294 -4.515165,-2.493719 C 9.705436,86.50386 7.0580583,84.814375 7.0580583,84.814375 Z"
           id="path4374"
           inkscape:connector-curvature="0"
           sodipodi:nodetypes="cscsc" />
        <path
           style="fill:#486717;fill-opacity:1;fill-rule:evenodd;stroke:#00ff00;stroke-width:0.35433072;stroke-linecap:butt;stroke-linejoin:miter;stroke-miterlimit:4;stroke-dasharray:none;stroke-opacity:1"
           d="m 5.26308,83.89138 c 1.39196,0.98316 9.30976,6.01168 19.47467,9.32028 7.19691,2.34254 15.12133,3.58754 20.64322,3.85888 13.13481,0.64545 25.237299,-0.328118 37.83984,-4.0852 4.735559,-1.41177 12.218372,-5.599432 15.9365,-9.99548 4.7006,-5.557647 7.56106,-15.04677 7.56106,-15.04677 0,0 0.68014,0.865472 0.66776,3.168007 -0.0118,2.204338 -0.70536,5.824906 -1.17283,6.904333 -2.4856,5.739421 -7.56288,10.27334 -12.75318,13.76332 -4.85247,3.26283 -10.72161,4.85375 -16.41498,6.18719 -7.00147,1.63981 -14.15018,2.38612 -21.34074,2.45907 -7.4308,0.0754 -15.32051,-0.26593 -22.59836,-1.76776 C 26.4449,97.28268 20.659784,95.441194 14.66188,92.23411 13.967238,91.862684 11.285866,90.268306 9.2441703,88.591598 7.2595975,86.961801 5.2854418,85.191716 5.26308,83.89138 Z"
           id="path4255-4"
           inkscape:connector-curvature="0"
           sodipodi:nodetypes="csssscssssssssc" />
        <path
           style="opacity:0.34800002;fill:url(#pattern6787);fill-opacity:1;fill-rule:evenodd;stroke:none;stroke-width:0.35433072;stroke-linecap:butt;stroke-linejoin:miter;stroke-miterlimit:4;stroke-dasharray:none;stroke-opacity:1"
           d="m 15.580397,73.12953 c -1.508972,-0.248268 -2.531593,0.954776 -2.209708,2.386486 0.132903,0.591141 -0.601316,0.978542 -0.972272,0.618718 -1.545123,-1.498758 -6.4523492,-0.265165 -6.4523492,-0.265165 -1.3999098,-0.05753 -2.0964303,1.212418 -2.0661332,1.860108 0.027426,0.586301 0.6743997,1.502931 2.508075,1.852203 0,0 5.2344874,0.16901 7.4246214,1.414214 2.703428,1.537038 3.267948,5.910734 6.187184,6.982679 0.977827,0.359059 2.576197,0.462144 3.093592,-0.441942 0.616894,-1.07795 -0.745317,-2.400669 -1.414213,-3.447145 -2.03419,-3.182458 1.603674,-4.167651 3.18198,-4.949748 -3.737059,-0.938467 -7.227227,-4.447744 -9.280777,-6.010408 z"
           id="path4317"
           inkscape:connector-curvature="0"
           sodipodi:nodetypes="cssssssssscc" />
        <path
           style="fill:#486717;fill-opacity:1;fill-rule:evenodd;stroke:#00ff00;stroke-width:0.35433072;stroke-linecap:butt;stroke-linejoin:miter;stroke-miterlimit:4;stroke-dasharray:none;stroke-opacity:1"
           d="m 49.747102,65.164922 c -0.35714,0 -1.341073,-0.269644 -1.341073,-0.269644 0.186558,-2.406058 3.106785,-4.627286 5.354445,-5.526745 1.87918,-0.751998 6.074592,-1.663045 8.733462,-1.722772 3.49168,-0.07843 4.750481,0.209402 4.750481,0.209402 -0.73261,1.007339 -1.113133,2.019091 -1.608943,2.316044 0,0 -3.168339,0.255565 -4.915199,0.443737 -2.0454,0.22032 -4.976833,0.880291 -6.866023,1.694631 -1.68324,0.72557 -4.10715,2.855347 -4.10715,2.855347 z"
           id="path4257-2"
           inkscape:connector-curvature="0"
           sodipodi:nodetypes="ccssccssc" />
        <path
           style="opacity:0.34800002;fill:url(#pattern6695);fill-opacity:1;fill-rule:evenodd;stroke:none;stroke-width:0.35433072;stroke-linecap:butt;stroke-linejoin:miter;stroke-miterlimit:4;stroke-dasharray:none;stroke-opacity:1"
           d="m 0.26516504,71.739365 c 0,0 3.56187256,-8.579954 7.42462116,-8.838834 3.1804338,-0.213151 6.2755728,6.275573 6.2755728,6.275573 0,0 -1.22981,-4.387797 -0.795495,-6.540738 0.328806,-1.629921 2.474874,-4.331029 2.474874,-4.331029 -2.003786,1.032306 -4.264362,0.665279 -4.949748,-0.618719 -1.099472,-2.059745 -1.2627362,-3.626256 1.237437,-6.894291 0,0 -7.5005972,4.973098 -9.63433,8.750447 -2.19064529,3.878101 -2.87630614,9.937246 -2.03293196,12.197591 z"
           id="path4315"
           inkscape:connector-curvature="0"
           sodipodi:nodetypes="cscscscsc" />
        <path
           style="fill:#486717;fill-opacity:1;fill-rule:evenodd;stroke:#00ff00;stroke-width:0.35433072;stroke-linecap:butt;stroke-linejoin:miter;stroke-miterlimit:4;stroke-dasharray:none;stroke-opacity:1"
           d="m 80.274828,59.056886 c 0.79345,0.0947 5.61546,2.631622 7.45312,4.373734 1.64165,1.55629 2.40302,4.30917 2.18657,6.56089 -0.28014,2.91421 -3.20527,5.93811 -4.36578,6.06601 0.98363,-1.2818 2.13494,-3.37275 1.77552,-6.95667 -0.18416,-1.83627 -1.55261,-4.55375 -3.04943,-5.63325 -1.61226,-1.16277 -4.93052,-2.205992 -4.93052,-2.205992 -0.054,-0.697686 0.63866,-1.477376 0.93052,-2.204722 z"
           id="path4259-9"
           inkscape:connector-curvature="0"
           sodipodi:nodetypes="csscsscc" />
        <path
           style="opacity:0.34800002;fill:url(#pattern6603);fill-opacity:1;fill-rule:evenodd;stroke:none;stroke-width:0.35433072;stroke-linecap:butt;stroke-linejoin:miter;stroke-miterlimit:4;stroke-dasharray:none;stroke-opacity:1"
           d="m 16.617009,49.02356 c 0,0 4.315132,-0.100144 5.39169,1.414214 0.873296,1.228436 -0.353554,4.507806 -0.353554,4.507806 l 9.899495,-3.623923 c 0,0 -2.398708,-1.192457 -3.005204,-2.298097 -0.497763,-0.907421 -0.265165,-3.093592 -0.265165,-3.093592 l -7.689786,1.237437 z"
           id="path4354"
           inkscape:connector-curvature="0"
           sodipodi:nodetypes="csccsccc" />
        <path
           style="fill:#486717;fill-opacity:1;fill-rule:evenodd;stroke:#00ff00;stroke-width:0.35433072;stroke-linecap:butt;stroke-linejoin:bevel;stroke-miterlimit:4;stroke-dasharray:none;stroke-opacity:1"
           d="m 14.080767,67.954413 c -0.539,-2.33145 -1.292455,-3.614798 -0.580835,-5.466238 0,0 1.121048,-2.981645 2.247468,-3.899725 2.21133,-1.80235 4.564935,-3.089642 7.213165,-4.150472 2.94582,-1.18003 6.574113,-2.160758 9.471533,-3.455098 2.73498,-1.22177 4.94091,-2.252337 7.47923,-3.842867 3.37419,-2.11431 7.163962,-7.303486 7.122152,-8.869026 0,0 0.505917,2.134665 -0.206513,3.842875 -0.79783,1.91297 -2.443197,4.165143 -4.073817,5.444628 -2.411612,1.8923 -5.87529,3.416517 -9.01786,4.914307 -3.04386,1.45074 -6.336978,2.296183 -9.552668,3.394653 -2.77098,0.94655 -4.988644,2.48339 -7.150034,4.4589 -1.82924,1.67191 -2.788231,3.773163 -2.951821,7.628063 z"
           id="path4261-8"
           inkscape:connector-curvature="0"
           sodipodi:nodetypes="ccsssscsssssc" />
        <path
           style="opacity:0.34800002;fill:url(#pattern6511);fill-opacity:1;fill-rule:evenodd;stroke:none;stroke-width:0.35433072;stroke-linecap:butt;stroke-linejoin:miter;stroke-miterlimit:4;stroke-dasharray:none;stroke-opacity:1"
           d="m 33.234019,44.78092 c 0.441942,-0.08839 3.579292,-0.465605 5.126524,0.265165 0.829723,0.391885 1.856155,2.032932 1.856155,2.032932 2.941993,-1.975667 4.083409,-3.411161 4.684583,-4.684583 0,0 -0.956721,-1.587381 -1.767767,-1.856155 -0.993127,-0.329115 -3.093592,0.53033 -3.093592,0.53033 -1.44252,1.733106 -4.240093,2.653179 -6.805903,3.712311 z"
           id="path4356"
           inkscape:connector-curvature="0"
           sodipodi:nodetypes="csccscc" />
        <path
           style="fill:#486717;fill-opacity:1;fill-rule:evenodd;stroke:#00ff00;stroke-width:0.35433072;stroke-linecap:butt;stroke-linejoin:bevel;stroke-miterlimit:4;stroke-dasharray:none;stroke-opacity:1"
           d="m 20.402861,33.098273 c 3.078157,0.597537 6.510543,-0.921664 10.60272,-0.731912 1.884478,0.08738 3.766851,0.552374 5.68599,1.173853 2.30254,0.745637 4.812298,2.635397 4.61009,4.542514 -0.42595,4.017343 -2.485425,3.692942 -4.23128,4.801398 1.039343,-0.626403 2.869035,-2.130861 2.27284,-4.293149 -0.654838,-2.374974 -2.83616,-2.968409 -3.8512,-3.219861 -5.31732,-1.31723 -10.10157,-1.326024 -15.08916,-2.272843 z"
           id="path4263-2"
           inkscape:connector-curvature="0"
           sodipodi:nodetypes="cssscssc" />
        <path
           style="opacity:0.34800002;fill:url(#pattern6419);fill-opacity:1;fill-rule:evenodd;stroke:none;stroke-width:0.35433072;stroke-linecap:butt;stroke-linejoin:miter;stroke-miterlimit:4;stroke-dasharray:none;stroke-opacity:1"
           d="m 35.443727,28.959405 c -2.520404,0.04904 -2.258751,1.810111 -1.767766,3.712311 2.336962,0.337464 3.985258,0.986726 5.480077,2.032932 0,0 0.185481,-1.687665 0.694411,-2.274169 0.276599,-0.31876 0.516855,-0.858376 1.298624,-0.885757 0.781768,-0.02738 2.10505,0.457473 2.072829,0.419887 -1.803413,-2.103663 -4.825209,-2.507806 -7.778175,-3.005204 z"
           id="path4358"
           inkscape:connector-curvature="0"
           sodipodi:nodetypes="cccsssc" />
        <path
           style="opacity:0.34800002;fill:url(#pattern6327);fill-opacity:1;fill-rule:evenodd;stroke:none;stroke-width:0.35433072;stroke-linecap:butt;stroke-linejoin:miter;stroke-miterlimit:4;stroke-dasharray:none;stroke-opacity:1"
           d="m 11.932427,28.075521 c 0,0 2.699165,1.573568 3.977475,1.944545 1.391084,0.403704 2.947373,-0.516857 4.331029,-0.08839 1.361438,0.421588 3.110672,2.19623 3.623923,2.12132 0.485706,-0.07089 2.259443,-3.422278 2.916815,-3.093592 0,0 -4.314723,-0.162436 -6.452349,-0.441941 -1.993849,-0.260706 -5.922019,-1.149049 -5.922019,-1.149049 -1.867904,-0.317448 -2.4677,0.326781 -2.474874,0.707107 z"
           id="path4360"
           inkscape:connector-curvature="0"
           sodipodi:nodetypes="cssscscc" />
        <path
           style="fill:#486717;fill-opacity:1;fill-rule:evenodd;stroke:#00ff00;stroke-width:0.35433072;stroke-linecap:butt;stroke-linejoin:miter;stroke-miterlimit:4;stroke-dasharray:none;stroke-opacity:1"
           d="m 85.206368,34.174318 c 0,0 -1.516261,1.089154 -2.121321,1.988737 -1.212464,1.802651 -1.928074,3.952073 -2.474874,6.054602 -0.952267,3.661615 -0.999349,7.503521 -1.679378,11.225321 -0.400932,2.194299 -0.776242,4.403289 -1.414214,6.540737 -0.704208,2.359362 -1.50274,4.716562 -2.65165,6.894291 -1.452918,2.753969 -5.303301,7.689787 -5.303301,7.689787 0,0 2.7648,-1.749834 3.889087,-2.916816 1.865567,-1.936413 3.279712,-4.193739 4.419417,-6.629126 1.502727,-3.211114 2.205012,-6.799189 3.005204,-10.253048 0.924536,-3.990563 1.118996,-7.848082 1.944544,-12.462757 0.323226,-1.806779 0.587711,-3.809071 1.767767,-5.214913 0.907053,-1.080604 3.71231,-2.032932 3.71231,-2.032932 -1.963865,-0.167116 -2.175722,-0.458935 -3.093591,-0.883883 z"
           id="path8281"
           inkscape:connector-curvature="0"
           sodipodi:nodetypes="cssssscssssscc" />
        <path
           style="color:#000000;font-style:normal;font-variant:normal;font-weight:normal;font-stretch:normal;font-size:medium;line-height:normal;font-family:sans-serif;text-indent:0;text-align:start;text-decoration:none;text-decoration-line:none;text-decoration-style:solid;text-decoration-color:#000000;letter-spacing:normal;word-spacing:normal;text-transform:none;direction:ltr;block-progression:tb;writing-mode:lr-tb;baseline-shift:baseline;text-anchor:start;white-space:normal;clip-rule:nonzero;display:inline;overflow:visible;visibility:visible;opacity:1;isolation:auto;mix-blend-mode:normal;color-interpolation:sRGB;color-interpolation-filters:linearRGB;solid-color:#000000;solid-opacity:1;fill:#5a4a42;fill-opacity:1;fill-rule:evenodd;stroke:none;stroke-width:1.77165353;stroke-linecap:butt;stroke-linejoin:miter;stroke-miterlimit:4;stroke-dasharray:none;stroke-dashoffset:0;stroke-opacity:1;color-rendering:auto;image-rendering:auto;shape-rendering:auto;text-rendering:auto;enable-background:accumulate"
           d="m 89.304688,18.111328 c -4.024237,0.03087 -6.383156,3.348147 -6.597657,4.839844 -7.304132,3.783284 -10.770765,14.725884 -11.394531,21.4375 -10.449968,0.793768 -21.883967,1.212297 -30.814453,7.072266 -5.784324,3.795532 -9.924173,11.586242 -8.035156,18.65625 1.823639,6.825316 9.625092,9.072987 15.976562,9.425781 5.32671,0.295873 10.881315,0.223084 15.974609,-1.513672 3.762228,-1.282877 7.273713,-3.635986 10.251954,-6.578125 1.609849,-1.590334 2.916666,-4.270807 3.839843,-6.480469 0.538078,-1.287913 0.591159,-2.152046 1.427735,-2.521484 0.806222,0.08906 1.581777,0.339514 2.271484,0.652343 0.0059,0.008 0.0075,0.01752 0.01367,0.02539 l 0.01563,-0.01367 c 0.09513,0.04357 0.193752,0.08501 0.285156,0.13086 1.966097,0.986327 3.314542,2.534511 3.990235,4.480468 0.771574,2.222088 0.02008,6.629965 -2.228516,7.927735 C 74.054009,81.158162 61.900927,82.95451 50.4668,83.080079 39.00691,83.205931 26.957372,81.256695 17.501956,74.052735 13.587549,71.070398 14.04439,63.928768 17.283206,60.712892 c 4.211793,-4.181962 12.166294,-5.77176 15.894531,-7.38086 5.64513,-2.436428 12.078818,-5.152077 14.332032,-11.609375 2.033351,-5.827211 -2.63581,-11.066592 -7.863282,-12.65625 -7.244076,-2.202902 -15.029033,0.594142 -22.240234,-1.755859 -2.745906,-0.894841 -8.6851143,-1.96983 -5.494141,2.410156 3.525745,4.229527 9.681048,4.217669 14.695313,5.039063 1.961313,0.347031 5.848587,0.295881 8.603516,1.267578 0.0052,0.02035 0.006,0.04239 0.01172,0.0625 l 0.09766,-0.02734 c 0.03188,0.01168 0.06806,0.01928 0.09961,0.03125 2.504715,0.950229 3.7071,3.549387 3.019531,4.748047 -1.160992,2.023992 -4.397137,3.005723 -7.970703,3.912109 -4.405232,1.117327 -9.23977,1.429561 -12.621094,2.609375 C 10.398098,49.962585 2.5790306,55.110963 -0.02148438,62.816406 -2.8103697,71.08 0.71864083,82.58393 7.3535156,88.472656 c 5.0532244,4.484946 11.2712944,7.59644 17.7519534,9.316406 15.438956,4.097498 32.215978,4.413688 47.93164,1.896485 11.88351,-1.903408 24.453111,-7.583789 31.687501,-17.802735 5.0046,-7.069248 3.95471,-19.259422 -1.58203,-25.740234 -4.91734,-6.283013 -12.705238,-9.023566 -20.255861,-10.548828 0.219518,-4.471059 1.104481,-10.020806 7.097656,-9.476562 2.618998,0.237833 5.451115,-0.292497 8.296875,-0.775391 3.02142,-0.512702 6.47891,-1.400576 8.53516,-3.574219 3.02194,-3.80587 -0.78127,-7.553698 -3.77539,-7.677734 -0.52896,-1.697776 -1.55768,-2.269023 -2.55469,-2.867188 -3.268737,-1.961103 -7.421095,-3.14018 -11.181642,-3.111328 z m -0.701172,1.72461 c 5.315761,0.114345 10.469138,2.029838 13.894534,5.318359 2.15841,0.79664 3.14494,1.79522 3.38281,2.818359 -0.16565,0.616299 -1.01136,1.174999 -1.74609,1.824219 -0.88713,0.783878 -2.46336,1.407364 -4.13086,1.867187 -1.516705,0.418234 -4.629353,1.1202 -7.408207,1.160157 -2.778852,0.03996 -5.262551,-0.177245 -6.466797,-0.550781 -0.351349,-0.108982 -1.219484,-0.890554 -2.080078,-1.367188 0.275487,0.841703 1.415684,1.650522 2.984375,2.148438 1.728435,0.548617 4.352951,0.453706 6.603516,0.326171 2.817588,-0.159668 5.712734,-0.694882 6.632811,-0.888671 1.83348,-0.386173 3.34316,-1.155354 4.39453,-2.080079 0.65912,-0.579721 0.93176,-0.92034 1.1875,-1.285156 -0.2814,1.029898 -1.11819,2.237595 -2.23828,3.003906 -1.73441,1.186598 -5.863908,1.677175 -7.265624,1.933594 -2.679485,0.490164 -5.446897,0.463299 -7.611328,0.388672 -1.348994,-0.04651 -2.186665,-0.333053 -3.451172,-0.96875 -1.293572,-0.650309 -2.638512,-1.363771 -3.546875,-2.53125 -0.400894,-0.515252 -0.82981,-1.246134 -0.505859,-1.876953 0.520519,-1.013589 2.147745,-2.627223 3.019531,-3.335938 -0.513113,-0.304878 -1.034754,0.09251 -1.539062,0.494141 -0.971419,0.773637 -1.620964,1.13168 -2.230469,2.226563 -0.554458,0.995999 -0.323693,2.280871 0.390625,3.107421 0.929737,1.075816 2.243707,2.121588 3.416015,2.810547 -2.223268,2.095474 -3.227676,4.598509 -3.884765,7.552735 -0.742571,3.338545 -1.131066,6.396526 -1.554688,9.613281 -0.45633,3.465121 -0.963443,7.08426 -2.289062,10.558594 -1.382065,3.622275 -3.177785,6.904191 -5.583985,9.886718 -0.306483,0.379893 -1.634077,1.593569 -1.919921,1.804688 -2.812446,2.077216 -6.301718,3.14644 -9.794922,3.539062 -6.781892,0.762259 -14.129321,1.128379 -20.384766,-1.988281 -5.085708,-2.53386 -6.30908,-9.065228 -3.988281,-13.935547 1.111769,-2.333106 2.084822,-4.569603 3.792969,-6.40625 2.144782,-2.30613 5.460136,-4.032308 8.519531,-5.099609 7.773922,-2.712011 15.858739,-3.553115 24.048828,-4.136719 -0.572073,5.199488 -1.228018,7.719038 -3.763672,10.957031 -1.899532,-0.307095 -4.780175,0.08061 -6.701172,0.388672 -2.707352,0.43416 -5.710915,1.060535 -8.251953,2.111328 -1.29061,0.533704 -2.560852,1.325016 -3.476562,2.447266 -0.506884,0.621212 -0.928132,1.276821 -1.195313,2.123047 -0.136089,0.431027 -0.258665,0.997544 0.0098,1.359375 0.429123,0.578512 0.915236,0.59849 1.539062,0.728515 2.634424,0.549104 6.806847,0.629858 9.332032,0.115235 1.860737,-0.379212 5.261333,-3.322874 6.949218,-4.697266 1.763431,-1.435906 2.874601,-3.114445 3.888672,-4.935547 2.104073,-3.778565 3.02702,-8.049143 3.283203,-10.978515 0.46668,-5.336336 2.406111,-11.999795 5.982422,-17.013672 1.306505,-1.831678 3.156942,-3.362322 4.771485,-4.642578 0.04118,-0.05032 0.797415,-0.184365 1.158203,-0.439453 0.445699,-0.315122 1.615399,-0.252801 1.720703,-0.273438 0.04281,-0.333942 -0.66112,-0.329017 -0.966797,-0.341797 -0.33863,-0.01416 -1.447351,0.221067 -1.408203,0.160157 0.282106,-0.642007 0.600605,-1.225374 1.042968,-1.654297 1.070319,-0.79365 2.308455,-1.370031 3.439454,-1.345703 z m -74.972657,7.93164 c 0.95894,-0.05808 2.877242,0.800128 4.00586,1.007813 3.314937,0.610005 5.953044,0.633306 8.482422,0.71875 2.269373,0.07666 4.493627,0.02955 6.998047,-0.08789 5.235866,-0.245537 12.374697,2.396298 13.394531,8.015625 0.254557,1.402621 -0.70766,3.178295 -1.414063,4.230469 -1.514064,2.255171 -3.461255,3.910449 -5.841797,5.246094 -4.099074,2.299857 -8.440312,4.093725 -12.873047,5.630859 -3.260079,1.130494 -6.653547,2.175978 -9.498046,4.169922 -1.709626,1.198418 -3.075828,2.983967 -3.753907,4.951172 -0.641318,1.860554 -0.704559,4.474473 -0.238281,6.318359 0.485008,1.917955 1.446479,5.133417 2.601563,6.253906 8.493008,8.23864 20.536178,10.446155 31.859375,10.78125 11.737921,0.347368 23.63234,-1.302032 34.621093,-5.689453 1.430921,-0.571316 2.758606,-1.216819 3.917969,-2.103515 1.624008,-1.24207 3.191962,-2.585179 4,-4.478516 0.74188,-1.738321 0.58078,-6.349087 -0.427734,-7.869141 -1.208833,-1.821978 -2.852155,-3.35196 -4.785156,-4.380859 -1.295029,-0.689319 -2.618382,-1.365821 -4.023438,-1.800781 0.286404,-1.218673 0.654948,-2.656784 0.988281,-4.228516 0.361151,-1.702894 0.559149,-3.440604 0.828125,-4.947266 0.1902,-1.065397 0.177447,-1.937782 0.292969,-2.615234 6.605606,1.56069 13.464341,4.060084 18.082035,9.318359 3.13481,3.193636 5.20099,7.658808 4.54687,12.097657 -1.07299,7.281291 -6.084334,15.267961 -12.294921,19.24414 -8.11859,5.197732 -17.955482,7.303078 -27.330078,8.445313 C 47.236068,98.254276 27.616936,95.805633 10.863281,86.945312 9.4815663,86.214579 7.0996162,84.266988 5.9238281,83.044922 2.7501873,79.74637 0.95703199,73.801032 0.65039062,69.142578 0.16467725,61.763687 5.776217,55.577037 11.537109,51.935547 c 6.597838,-4.170527 14.627329,-4.335385 21.919922,-6.572266 1.752753,-0.537628 3.983385,-1.564745 5.681641,-2.814453 0.846731,-0.62309 1.484339,-1.393679 2.011719,-2.345703 0.814502,-1.470335 0.759784,-3.22135 -0.378907,-4.546875 -1.756682,-2.044914 -4.07639,-2.792395 -6.638672,-3.248047 -2.104753,-0.37429 -4.164693,-0.32637 -6.296874,-0.236328 -1.948372,0.08228 -3.936037,0.903982 -5.873047,0.691406 -4.304631,-0.472409 -9.064585,-2.553037 -8.90625,-4.673828 0.04167,-0.280578 0.25457,-0.402514 0.574218,-0.421875 z m 16.828125,4.955078 c -0.121316,0.382177 -0.146485,0.771249 -0.113281,1.150391 -1.896043,-0.182038 -4.337751,-0.372619 -5.3125,-0.541016 0.574358,-0.04831 1.951444,-0.513762 2.527344,-0.539062 0.823006,-0.03579 2.040018,-0.08496 2.898437,-0.07031 z m 0.753907,0.04297 c 1.492031,0.07583 2.966985,0.281208 4.392578,0.6875 -0.179725,0.347314 -0.32346,0.730384 -0.402344,1.140625 -1.180138,-0.31544 -2.439892,-0.467428 -3.689453,-0.611328 -0.118086,-0.0136 -0.316895,-0.02919 -0.447266,-0.04297 -0.05346,-0.387081 -0.01105,-0.79178 0.146485,-1.173828 z m 5.085937,0.898437 c 0.585975,0.194697 1.162674,0.420716 1.728516,0.685547 0.775727,0.363064 1.508682,0.869493 2.037109,1.53711 -0.393785,0.206552 -0.705806,0.584713 -0.917969,1.017578 -0.01523,0.03107 -0.02472,0.06592 -0.03906,0.09766 -0.862344,-1.112536 -1.964073,-1.773677 -3.1875,-2.195312 0.07446,-0.421498 0.208394,-0.826086 0.378906,-1.142579 z m 48.712891,1.105469 c 0.267192,-0.04181 0.778111,0.163701 1.177734,0.425781 -0.871219,0.15757 -1.445258,0.847184 -1.691406,1.039063 -0.376647,0.368046 -0.629976,0.769152 -0.849609,1.216797 -0.217214,-0.03328 -0.43501,-0.105619 -0.675782,-0.261719 0.562961,-0.894581 1.246171,-1.715732 2.039063,-2.419922 z m -44.554688,1.714844 c 0.162405,0.310755 0.28458,0.648133 0.34961,1.017578 0.11975,0.680318 0.01559,2.799713 -1.150391,3.25 0.205853,-1.03943 0.316835,-2.309569 -0.05273,-3.009765 0.04442,-0.183332 0.100144,-0.363104 0.179687,-0.525391 0.182922,-0.373206 0.437034,-0.628452 0.673828,-0.732422 z m 42.15625,1.304687 c 0.260341,0.159173 0.510227,0.253775 0.751953,0.3125 -0.180247,0.475111 -0.350868,0.997022 -0.560546,1.636719 -0.118957,0.362918 -0.216087,0.790935 -0.302735,1.244141 -0.389596,0.147999 -0.593539,0.144605 -0.753906,0.101562 -0.08758,-0.0235 -0.187934,-0.07803 -0.300781,-0.134765 0.168572,-0.590985 0.3358,-1.182137 0.539062,-1.765625 0.168388,-0.483378 0.385309,-0.945259 0.626953,-1.394532 z m -35.984375,2.357422 c 0.384653,1.137483 -0.689368,3.360965 -1.875,4.800782 -0.02645,0.03213 -0.05899,0.0618 -0.08594,0.09375 0.0061,-0.21662 -0.0076,-0.430233 -0.07422,-0.632813 -0.05122,-0.155822 -0.132822,-0.304 -0.242188,-0.433594 0.05976,-0.08166 0.128001,-0.154259 0.185547,-0.238281 0.78406,-1.144796 1.506276,-2.333321 2.091797,-3.589844 z m 34.615235,1.494141 c 0.09846,0.04519 0.189564,0.09186 0.320312,0.126953 0.224765,0.06033 0.492702,0.05717 0.8125,-0.01563 -0.158475,1.028874 -0.278816,2.078376 -0.396484,2.96875 -0.498143,0.170424 -0.980582,0.244697 -1.455078,0.197266 0.204566,-1.100057 0.433224,-2.194914 0.71875,-3.277344 z M 43.890625,44.56836 c 0.0093,0.02159 0.0232,0.03606 0.03125,0.06055 0.05202,0.158253 0.06298,0.381647 0.02539,0.632813 -0.03712,0.248091 -0.12325,0.520676 -0.238282,0.783203 -0.983004,0.930403 -2.137857,1.769474 -3.318359,2.507812 0.02595,-0.338607 -0.03733,-0.683827 -0.197266,-0.984375 1.37065,-0.83075 2.657703,-1.780527 3.697266,-3 z M 81.867188,45.5 c -0.0074,0.04281 -0.01386,0.105769 -0.02148,0.146484 -0.06942,0.370784 -0.309422,1.823968 -0.515625,3.064454 -0.277034,0.119506 -0.526607,0.259359 -0.753906,0.341796 -0.274083,0.09941 -0.47524,0.140106 -0.714844,0.01953 0.158536,-1.157431 0.335306,-2.310804 0.535156,-3.458985 0.496646,0.0578 0.989023,0.01569 1.470704,-0.113281 z m -42.269532,2.416016 c 0.08929,0.175653 0.120349,0.392791 0.08984,0.640625 -0.02246,0.182434 -0.08941,0.361752 -0.175781,0.527343 -0.876143,0.510901 -1.741514,0.970416 -2.525391,1.363282 -0.753886,0.377834 -1.505717,0.717962 -2.255859,1.035156 0.02511,-0.130582 0.04226,-0.260023 0.03906,-0.386719 -0.0056,-0.223027 -0.06231,-0.427489 -0.138672,-0.621094 0.864731,-0.386515 1.721547,-0.79201 2.560547,-1.240234 0.799282,-0.427005 1.610617,-0.859938 2.40625,-1.318359 z M 81.1875,49.556641 c -0.05531,0.325349 -0.09715,0.590076 -0.144531,0.855468 -0.157657,0.883114 -0.347611,1.708854 -0.548828,2.59961 -0.341306,0.216396 -0.703959,0.336058 -1.199219,0.279297 0.163659,-1.17543 0.317194,-2.353041 0.474609,-3.529297 0.371464,0.102703 0.74347,0.06778 1.048828,-0.04297 0.134435,-0.04876 0.247648,-0.106452 0.369141,-0.162109 z m -47.199219,1.207031 c 0.04072,0.11233 0.07115,0.227926 0.07422,0.349609 0.0054,0.21331 -0.06108,0.456683 -0.222656,0.722657 -1.636485,0.652295 -3.262692,1.215127 -4.878906,1.757812 0.03972,-0.269404 -0.0024,-0.557368 -0.13086,-0.839844 1.735581,-0.625086 3.46564,-1.261862 5.158203,-1.990234 z m -5.8125,2.226562 c 0.09657,0.177891 0.113665,0.343106 0.08594,0.511719 -0.01984,0.120642 -0.08243,0.249104 -0.150391,0.376953 -1.6327,0.550711 -3.25453,1.118726 -4.863281,1.796875 0.0026,-0.132844 -0.0056,-0.259755 -0.02539,-0.378906 -0.02673,-0.160958 -0.08462,-0.29351 -0.138672,-0.427734 0.256078,-0.0964 0.517171,-0.193483 0.769532,-0.291016 1.430709,-0.552948 2.876952,-1.069788 4.322265,-1.587891 z m 52.138672,0.875 c -0.08224,0.385963 -0.161771,0.705894 -0.246094,1.16211 -0.193566,1.047265 -0.267917,1.72308 -0.380859,2.378906 -0.391119,0.123437 -0.715506,0.08066 -1.0625,-0.02539 0.216118,-1.128268 0.403789,-2.261651 0.568359,-3.40039 0.417316,0.04427 0.790084,-0.0021 1.121094,-0.115235 z m -57.886719,1.253907 c 0.03972,0.09596 0.08036,0.190754 0.09766,0.294921 0.02654,0.159825 0.01257,0.364846 -0.03711,0.607422 -1.186896,0.530348 -2.368746,1.112512 -3.541015,1.828125 -0.204588,0.124891 -0.416806,0.27792 -0.628907,0.435547 -0.02151,-0.246857 -0.06507,-0.471337 -0.136718,-0.65625 -0.05935,-0.153211 -0.132909,-0.277152 -0.208985,-0.388672 1.357528,-0.910984 2.909385,-1.537364 4.455078,-2.121093 z m -5.035156,2.544921 c 0.04462,0.06752 0.09174,0.124759 0.128906,0.220704 0.08599,0.221995 0.140784,0.536634 0.08594,0.982422 -1.661476,1.467018 -3.296505,3.707506 -3.69336,5.796874 -0.122499,-1.74 1.071221,-4.49503 2.150391,-5.761718 0.400111,-0.469635 0.852705,-0.869896 1.328125,-1.238282 z m 61.103516,0.410157 c 0.309995,0.08084 0.659096,0.117264 1.035156,0.07227 -0.04403,0.180785 -0.08284,0.354985 -0.144531,0.556641 -0.287702,0.940504 -0.570641,2.000643 -0.857422,2.841797 -0.0631,0.0347 -0.134371,0.08693 -0.193359,0.109375 -0.266162,0.101267 -0.468436,0.111284 -0.796876,-0.146485 0.374589,-1.080956 0.695308,-2.168683 0.921876,-3.25 0.01277,-0.06095 0.02262,-0.122595 0.03516,-0.183593 z m -13.341797,0.01758 c 0.461131,0.01126 0.886822,0.04241 1.25,0.09961 -0.213586,0.405659 -1.145799,1.48831 -1.492188,1.601563 -0.476704,-0.06236 -1.015229,-0.06628 -1.570312,-0.04687 0.148778,-0.332341 0.226704,-0.676688 0.236328,-1.007813 0.0062,-0.213003 -0.01859,-0.416033 -0.05664,-0.613281 0.563644,-0.02829 1.121427,-0.04569 1.632813,-0.0332 z m -2.355469,0.07422 c 0.04455,0.172953 0.07595,0.356863 0.07031,0.550781 -0.01054,0.362572 -0.120624,0.736657 -0.367188,1.078125 -1.649747,0.14394 -3.290363,0.489358 -4.390625,0.751953 0.175896,-0.468417 0.241669,-0.893237 0.21875,-1.265625 -0.01144,-0.185894 -0.04458,-0.354871 -0.08984,-0.511719 0.840334,-0.162273 1.679914,-0.303151 2.50586,-0.404297 0.621229,-0.07608 1.334169,-0.14727 2.052734,-0.199218 z m -5.257812,0.75 c 0.03995,0.123366 0.07255,0.256156 0.08203,0.410156 0.02256,0.366554 -0.0669,0.842775 -0.384766,1.433594 -0.01683,0.0043 -0.05853,0.01354 -0.07422,0.01758 -1.618217,0.416188 -2.952292,0.875777 -4.044921,1.353515 0.02471,-0.184863 0.03259,-0.368625 0.02344,-0.546875 -0.02352,-0.457802 -0.140622,-0.875826 -0.300781,-1.230468 0.08822,-0.04056 0.175303,-0.09157 0.263672,-0.126954 1.404364,-0.562342 2.913491,-0.983409 4.435547,-1.310546 z m 22.910156,0.816406 c 0.74199,0.243519 1.464329,0.545234 2.171875,0.878906 -0.165419,0.2812 -0.323951,0.575457 -0.443359,0.876953 -0.0051,0.01287 -0.0068,0.02618 -0.01172,0.03906 -0.681322,-0.282254 -1.37188,-0.518602 -2.017578,-0.726563 0.06007,-0.370312 0.20046,-0.738073 0.300781,-1.068359 z M 52.210938,60.68555 c 0.113409,0.268769 0.207188,0.596433 0.224609,0.935547 0.0161,0.313466 -0.03232,0.621131 -0.154297,0.908203 -1.408226,0.715896 -2.310374,1.459188 -2.755859,2.15625 -0.276799,-0.03577 -0.215264,0.08991 -0.556641,-0.04492 0.432628,-1.546915 1.764243,-3.06857 3.242188,-3.955078 z m 11.783203,0.111328 c -2.098741,1.461658 -4.292536,3.163737 -6.382813,3.707031 -2.886669,0.716771 -6.40928,0.812127 -6.9375,0.388672 1.83,-1.2302 4.149875,-2.193659 6.074219,-2.697266 2.613815,-0.662489 5.540253,-1.274534 7.246094,-1.398437 z m 19.271484,0.126953 c 0.766441,0.395023 1.511308,0.8324 2.222656,1.314453 0.783798,0.531149 1.481626,1.185455 2.095703,1.91211 -0.233128,0.100377 -0.470675,0.235893 -0.699218,0.417968 -0.117033,0.09324 -0.225607,0.206264 -0.326172,0.328125 -0.510559,-0.625145 -1.120436,-1.166841 -1.867188,-1.855468 -0.55188,-0.508924 -1.20045,-0.889658 -1.871094,-1.214844 0.01046,-0.02895 0.0078,-0.04855 0.01953,-0.07813 0.105232,-0.265704 0.261077,-0.546593 0.425781,-0.824219 z m -5.970703,1.265625 c 0.305361,0.172645 0.615795,0.238613 0.90039,0.214844 -0.410649,0.914607 -0.781442,1.765006 -1.146484,2.572265 -0.205099,0.10691 -0.401067,0.213947 -0.585937,0.283204 -0.181271,0.06791 -0.333907,0.100601 -0.492188,0.07617 0.486855,-1.029924 0.929718,-2.084363 1.324219,-3.146485 z m 10.761719,2.568359 c 0.325912,0.443832 0.632281,0.901548 0.890625,1.384766 0.341794,0.639308 0.381365,1.945268 0.298828,3.210938 -0.05777,-0.01541 -0.112662,-0.04273 -0.171875,-0.05078 -0.28383,-0.03861 -0.581251,0.0058 -0.853516,0.115235 -0.07681,0.03088 -0.150071,0.07723 -0.224609,0.117187 0.03948,-0.958532 -0.0074,-1.819068 -0.181641,-2.324218 -0.239676,-0.694936 -0.512243,-1.238881 -0.824219,-1.716797 0.08912,-0.134842 0.198569,-0.260099 0.337891,-0.371094 0.232585,-0.185295 0.50094,-0.293421 0.728516,-0.365235 z m -11.464844,1.197266 c -0.635127,1.336232 -1.297888,2.54393 -2.148438,3.66211 -0.08069,0.0089 -0.170752,0.02652 -0.236328,0.02148 -0.186906,-0.01435 -0.304375,-0.08282 -0.414062,-0.208984 0.643067,-1.111223 1.272553,-2.255845 1.863281,-3.458985 0.330629,0.09622 0.655017,0.06978 0.935547,-0.01563 z m 30.136723,3.251953 c 0.3728,0.852534 0.0883,2.429826 -0.29297,3.966797 -0.0266,0.107271 -0.0857,0.28384 -0.11914,0.40625 -0.13826,-0.153321 -0.2875,-0.290672 -0.44922,-0.398437 -0.11092,-0.07391 -0.23464,-0.119693 -0.35742,-0.166016 0.47305,-1.416372 0.90287,-2.7758 1.21875,-3.808594 z m -17.761723,0.783203 c 0.07713,0.0092 0.148447,0.03684 0.216797,0.07422 -0.07734,0.731011 -0.178708,1.413763 -0.298828,1.847656 -0.207532,0.74964 -1.520387,2.346127 -1.806641,2.375 0.40155,-0.802158 0.716897,-2.356549 0.855469,-3.849609 0.180652,-0.164735 0.372087,-0.288704 0.552734,-0.361328 0.180647,-0.07262 0.338524,-0.102937 0.480469,-0.08594 z m -15.544922,0.0625 c 0.140393,0.109997 0.295183,0.192926 0.462891,0.240235 -0.453588,0.525727 -0.942992,1.03945 -1.523438,1.537109 0.350263,-0.558141 0.705861,-1.178906 1.060547,-1.777344 z m 31.863285,3.628907 c 0.0607,0.02339 0.11987,0.04348 0.18945,0.08984 0.19654,0.13097 0.40514,0.351168 0.56836,0.615235 0.009,0.01486 0.0146,0.0318 0.0234,0.04687 -0.51074,1.652479 -1.27432,3.735111 -1.84961,5.001953 -0.12573,-0.4168 -0.35784,-0.82759 -0.78125,-1.117188 0.68839,-1.422541 1.30051,-3.040284 1.84961,-4.636718 z m -2.16407,5.271484 c 0.29594,0.219533 0.41357,0.517589 0.48047,0.886719 0.0396,0.218846 0.041,0.454205 0.0449,0.6875 -0.72426,1.133606 -1.51715,2.205026 -2.37304,3.21289 -0.0209,-0.152145 -0.0437,-0.303533 -0.0879,-0.439453 -0.10725,-0.330113 -0.28274,-0.615541 -0.50391,-0.824219 0.56744,-0.671715 1.11367,-1.377487 1.62109,-2.123046 0.28067,-0.412384 0.55161,-0.891757 0.81836,-1.400391 z m -2.91015,4.060547 c 0.11568,0.112372 0.22651,0.27725 0.30078,0.505859 0.0886,0.272758 0.11044,0.624758 0.041,1.021485 -1.212219,1.32953 -2.526276,2.55269 -3.935542,3.664062 -0.0129,-0.09629 -0.01825,-0.195203 -0.04102,-0.287109 -0.09988,-0.403203 -0.292638,-0.759212 -0.548828,-1.033203 1.42764,-1.107509 2.859493,-2.383773 4.1836,-3.871094 z M 6.5761719,85.052734 c 1.4726998,1.1836 3.1951686,2.288612 5.0546871,3.314454 -0.203467,0.257153 -0.348446,0.581097 -0.443359,0.927734 -0.0069,0.02528 -0.0092,0.05257 -0.01563,0.07813 -1.8818942,-1.321568 -3.4848069,-2.7671 -4.5957031,-4.320313 z m 88.8808591,2.263672 c 0.178975,0.172874 0.350088,0.442279 0.431641,0.771485 0.05056,0.204085 0.06021,0.422213 0.03906,0.642578 -1.405195,1.053942 -2.891311,2.005589 -4.435546,2.867187 -0.009,-0.152066 -0.02243,-0.302308 -0.05273,-0.443359 -0.0838,-0.390002 -0.226027,-0.721345 -0.367187,-1.007813 1.239611,-0.686431 2.452752,-1.429956 3.625,-2.253906 0.250883,-0.176341 0.506453,-0.38792 0.759765,-0.576172 z m -83.177734,1.408203 c 1.438131,0.765212 2.963665,1.461475 4.511719,2.126953 -0.297221,0.386933 -0.486068,0.850866 -0.560547,1.31836 -0.0086,0.05367 -0.0075,0.106472 -0.01367,0.160156 -1.555463,-0.77418 -3.043678,-1.618661 -4.408203,-2.527344 0.01508,-0.108434 0.0341,-0.216597 0.0625,-0.320312 0.09316,-0.340247 0.265175,-0.609721 0.408203,-0.757813 z m 78.169922,1.761719 c 0.119903,0.249326 0.233433,0.523091 0.296875,0.81836 0.04952,0.230467 0.06077,0.462954 0.0332,0.697265 -1.614373,0.86107 -3.291644,1.614135 -5.001953,2.287109 -0.0013,-0.08737 0.0052,-0.175848 -0.002,-0.261718 -0.03824,-0.457701 -0.155021,-0.887616 -0.328125,-1.257813 1.708637,-0.664392 3.379896,-1.420162 5.001953,-2.283203 z m -72.990235,0.650391 c 1.651023,0.690024 3.318358,1.333116 4.978516,1.902343 -0.217761,0.43109 -0.341162,0.926497 -0.361328,1.423829 -0.0049,0.121877 0.0071,0.243503 0.01367,0.365234 -1.732954,-0.637273 -3.483393,-1.3407 -5.185547,-2.15625 5.69e-4,-0.129017 0.0065,-0.259803 0.02734,-0.390625 0.06995,-0.43906 0.247448,-0.852532 0.527343,-1.144531 z m 67.316407,1.892578 c 0.139273,0.290012 0.260214,0.666521 0.292968,1.058594 0.01362,0.163043 0.01162,0.324085 -0.002,0.480468 -1.301951,0.49062 -2.62129,0.926588 -3.951172,1.31836 -0.0089,-0.07979 -0.0017,-0.162398 -0.01758,-0.240235 -0.0925,-0.453851 -0.281149,-0.879308 -0.52539,-1.240234 1.418554,-0.408325 2.822769,-0.862113 4.203125,-1.376953 z m -61.652344,0.232422 c 1.503312,0.501775 2.969402,0.948892 4.386719,1.34375 -0.275275,0.393084 -0.452433,0.885079 -0.503907,1.40625 -0.01386,0.140367 -0.0054,0.284068 0,0.427734 -1.327991,-0.370918 -2.73371,-0.827342 -4.169921,-1.335937 -0.03793,-0.193408 -0.06148,-0.397614 -0.05273,-0.613282 0.01812,-0.446919 0.14866,-0.889905 0.339844,-1.228515 z m 56.705078,1.359375 c 0.25488,0.313527 0.488057,0.733674 0.576172,1.166015 0.02125,0.104283 0.02385,0.203774 0.03125,0.304688 -1.683452,0.474426 -3.378264,0.866764 -5.064453,1.197265 0.01066,-0.07437 0.02787,-0.148761 0.03516,-0.222656 0.03914,-0.396834 0.02894,-0.78379 -0.04687,-1.128906 -0.0186,-0.08463 -0.05684,-0.158176 -0.08398,-0.238281 1.527596,-0.317231 3.049267,-0.664794 4.552734,-1.078125 z m -51.574219,0.197265 c 1.171799,0.315697 2.306435,0.602217 3.357422,0.837891 0.345082,0.07738 0.691471,0.145639 1.03711,0.21875 -0.152294,0.351761 -0.277761,0.755907 -0.335938,1.189453 -0.02618,0.195128 -0.03522,0.397022 -0.02539,0.599609 -0.855002,-0.165911 -1.707506,-0.341413 -2.55664,-0.53125 -0.626907,-0.140152 -1.321741,-0.328371 -2.00586,-0.509765 -0.02352,-0.177868 -0.03181,-0.359357 -0.01367,-0.542969 0.05129,-0.519303 0.281875,-0.993114 0.542968,-1.261719 z m 46.330078,1.033203 c 0.03035,0.06947 0.0608,0.141642 0.08203,0.238282 0.05465,0.248704 0.06831,0.570099 0.03516,0.90625 -0.01422,0.144185 -0.04279,0.290316 -0.07422,0.435547 -0.201003,0.03707 -0.402884,0.08008 -0.603515,0.115234 -1.211615,0.212302 -2.430854,0.402148 -3.652344,0.582031 0.0014,-0.06771 0.0063,-0.135701 0.0059,-0.203125 -0.0024,-0.361792 -0.03418,-0.713001 -0.101562,-1.021484 -0.02269,-0.103896 -0.05504,-0.196548 -0.08594,-0.291016 1.466902,-0.223628 2.932952,-0.470876 4.394531,-0.761719 z m -41.203125,0.175782 c 1.485014,0.30102 2.973232,0.563306 4.462891,0.789062 -0.002,0.005 -0.0059,0.0086 -0.0078,0.01367 -0.116954,0.304033 -0.182471,0.654951 -0.203126,1.029297 -0.01234,0.22357 -0.0034,0.455117 0.01953,0.6875 -1.553497,-0.211476 -3.100393,-0.462067 -4.638672,-0.748047 -0.02413,-0.203369 -0.02826,-0.415512 0.002,-0.640625 0.0565,-0.421065 0.207421,-0.806297 0.365234,-1.130859 z m 36.087891,0.689453 c 0.03886,0.08162 0.08083,0.189322 0.113281,0.337891 0.05323,0.243695 0.08379,0.553793 0.08594,0.875 6.87e-4,0.102671 -0.01977,0.200785 -0.02539,0.304687 -1.58025,0.223849 -3.167387,0.419318 -4.759766,0.585937 -0.06596,-0.344035 -0.115607,-0.788393 -0.08789,-1.517578 0.81752,-0.0869 1.644308,-0.164467 2.445312,-0.267578 0.741192,-0.09541 1.485362,-0.209773 2.228516,-0.318359 z m -30.890625,0.212891 c 1.630641,0.234029 3.260907,0.422094 4.886719,0.572265 -0.131318,0.364862 -0.194157,0.767622 -0.197266,1.169922 -0.0013,0.162431 0.01031,0.32403 0.02734,0.484375 -1.642633,-0.131526 -3.279108,-0.303924 -4.910156,-0.513672 -0.03849,-0.249098 -0.05826,-0.502457 -0.04492,-0.74414 0.01722,-0.312136 0.07558,-0.59967 0.158203,-0.814454 0.02468,-0.06417 0.05255,-0.105629 0.08008,-0.154296 z m 25.505859,0.451171 c -0.01917,0.690599 0.03145,1.143085 0.09766,1.511719 -1.282429,0.127108 -2.566077,0.240109 -3.853516,0.328125 -0.03343,-0.193347 -0.05765,-0.390202 -0.06445,-0.587891 -0.01154,-0.335352 0.01458,-0.663867 0.05664,-0.945312 1.269932,-0.0834 2.52573,-0.183144 3.763672,-0.306641 z M 44.21875,97.566406 c 1.727993,0.146505 3.448288,0.24934 5.158203,0.308594 -0.05604,0.281455 -0.09106,0.583148 -0.09961,0.902344 -0.0061,0.228014 0.0062,0.459207 0.0293,0.689453 -1.76388,-0.0436 -3.526387,-0.129309 -5.283203,-0.257813 -0.02902,-0.172311 -0.04828,-0.349888 -0.04688,-0.53125 0.0032,-0.413286 0.0983,-0.808971 0.242188,-1.111328 z m 15.384766,0.171875 c -0.03399,0.285769 -0.05817,0.589883 -0.04687,0.917969 0.0069,0.199542 0.02652,0.403556 0.05664,0.607422 -1.513209,0.0947 -3.028624,0.163161 -4.544922,0.201172 -0.03773,-0.170266 -0.06722,-0.346586 -0.08398,-0.521485 -0.03607,-0.376292 -0.0087,-0.739496 0.04687,-1.029297 1.542295,-0.02739 3.065109,-0.0866 4.572266,-0.175781 z m -9.488282,0.160157 c 1.398078,0.03871 2.790027,0.05211 4.167969,0.03711 -0.04467,0.336769 -0.03953,0.702487 -0.0039,1.074219 0.01511,0.157676 0.04228,0.31427 0.07031,0.470703 -1.440431,0.02737 -2.880706,0.02441 -4.320312,-0.002 -0.03006,-0.223236 -0.04911,-0.452184 -0.04297,-0.681641 0.0086,-0.322837 0.0626,-0.639024 0.128906,-0.898437 z"
           id="path4212"
           inkscape:connector-curvature="0" />
        <path
           style="fill:#1b4c0d;fill-opacity:1;fill-rule:evenodd;stroke:none;stroke-width:0.35433072;stroke-linecap:butt;stroke-linejoin:miter;stroke-miterlimit:4;stroke-dasharray:none;stroke-opacity:1"
           d="m 91.205357,26.165281 0.758929,0.535714 c 1.000178,0.151964 1.781596,0.08517 2.1875,-0.357143 0.899919,-0.302666 2.158063,-0.400651 3.526786,0.9375 1.428183,0.416926 2.502638,1.069674 4.285718,1.25 0.44224,0.447113 -2.629975,0.154342 -4.196433,0.178572 -0.9372,0.475591 -1.982274,1.228074 -2.589285,1.116072 -0.795153,-0.146718 -1.531589,-0.513979 -1.875,-1.830358 l -0.892857,-0.803571 -0.803572,0.178571 c -0.323372,-0.568291 -0.585075,-0.909835 -0.401786,-1.205357 z"
           id="path4243"
           inkscape:connector-curvature="0"
           sodipodi:nodetypes="ccccccscccc" />
        <path
           style="color:#000000;display:inline;overflow:visible;visibility:visible;opacity:1;fill:#000000;fill-opacity:1;fill-rule:evenodd;stroke:#ffffff;stroke-width:0.70866144;stroke-linecap:butt;stroke-linejoin:bevel;stroke-miterlimit:4;stroke-dasharray:none;stroke-dashoffset:0;stroke-opacity:1;marker:none;enable-background:accumulate"
           id="path8379"
           sodipodi:type="arc"
           sodipodi:cx="95.375"
           sodipodi:cy="27.98671"
           sodipodi:rx="0.75"
           sodipodi:ry="0.8125"
           sodipodi:start="0"
           sodipodi:end="6.2813876"
           sodipodi:open="true"
           d="m 96.125,27.98671 a 0.75,0.8125 0 0 1 -0.749663,0.8125 0.75,0.8125 0 0 1 -0.750337,-0.81177 0.75,0.8125 0 0 1 0.748989,-0.81323 0.75,0.8125 0 0 1 0.75101,0.811039" />
        <path
           style="fill:#fff200;fill-opacity:1;fill-rule:evenodd;stroke:#5a4a42;stroke-width:1.59427893;stroke-linecap:butt;stroke-linejoin:miter;stroke-miterlimit:4;stroke-dasharray:none;stroke-opacity:1"
           d="m 83.167422,24.014319 -1.349823,-7.08657 -2.249705,-0.562426 -0.112485,-2.58716 -2.024734,-0.449941 -1.237338,-7.199055 1.574794,-2.137219 5.961717,6.186687 3.712013,-7.648995 5.849231,5.624261 4.161954,-7.424025 2.36219,1.799764 1.237334,6.299173 -1.124849,0.787396 -1.237338,0.562426 0.224971,3.149587 -1.912249,0.337456 1.349823,6.749114 z"
           id="path3722"
           inkscape:connector-curvature="0" />
      </g>
      <text
         sodipodi:linespacing="125%"
         id="text5285"
         y="90.424652"
         x="-234.29877"
         style="font-style:normal;font-weight:normal;font-size:46.5678978px;line-height:125%;font-family:Sans;letter-spacing:0px;word-spacing:0px;fill:#5a4a42;fill-opacity:1;stroke:none;stroke-width:1px;stroke-linecap:butt;stroke-linejoin:miter;stroke-opacity:1"
         xml:space="preserve"><tspan
           style="font-style:normal;font-variant:normal;font-weight:bold;font-stretch:normal;font-family:Sans;-inkscape-font-specification:'Sans Bold'"
           y="90.424652"
           x="-234.29877"
           id="tspan5287"
           sodipodi:role="line">CocoToPy</tspan></text>
    </g>
  </g>
</svg>
